<?xml version="1.0" standalone="no"?>
<!DOCTYPE svg PUBLIC "-//W3C//DTD SVG 1.1//EN" "http://www.w3.org/Graphics/SVG/1.1/DTD/svg11.dtd" >
<svg xmlns="http://www.w3.org/2000/svg">
<metadata>Generated by IcoMoon</metadata>
<defs>
<font id="empathy-icons" horiz-adv-x="1024">
<font-face units-per-em="1024" ascent="960" descent="-64" />
<missing-glyph horiz-adv-x="1024" />
<glyph unicode="&#x20;" horiz-adv-x="512" d="" />
<glyph unicode="&#xe900;" glyph-name="dimension-query" d="M543.29 321.927l-91.356 91.025c63.66 71.442 99.746 158.914 126.004 244.499h98.912v65.938h-230.784v65.938h-65.938v-65.938h-263.76v-65.938h395.634c-24.097-69.997-56.108-142.594-107.903-200.623-33.447 37.357-61.141 78.336-83.086 121.489h-71.935c26.256-59.117 62.226-114.961 107.18-165.377l-183.071-182.059 51.076-51.501 179.832 181.328 111.856-112.785 27.334 73.984zM742.788 492.612h-65.938l-164.85-428.607h65.938l46.28 108.8h170.839l46.639-108.8h65.938l-164.85 428.607zM655.87 245.341l53.949 145.067 53.949-145.067h-107.903z" />
<glyph unicode="&#xe901;" glyph-name="dimension-product" d="M391.391 185.699c-38.889 0-70.357-32.182-70.357-71.517s31.467-71.517 70.357-71.517c38.889 0 70.713 32.182 70.713 71.517s-31.819 71.517-70.713 71.517zM738.594 185.699c-38.889 0-70.357-32.182-70.357-71.517s31.467-71.517 70.357-71.517c38.889 0 70.713 32.182 70.713 71.517s-31.819 71.517-70.713 71.517zM425.195 359.302h312.484l138.879 277.766-69.659-0.441-103.941-207.883h-312.484l-138.879 381.923h-104.157v-69.439h69.439l138.879-381.923-34.718-69.439c0-55.846 0-17.361 0-69.439h520.803l34.718 69.439h-486.081l34.718 69.439zM529.361 567.623h69.439v69.439h69.439v69.439h-69.439v69.439h-69.439v-69.439h-69.439v-69.439h69.439v-69.439z" />
<glyph unicode="&#xe902;" glyph-name="dimension-user" d="M350 588.667c0 89.326 72.675 162 162 162s162-72.674 162-162c0-89.326-72.675-162-162-162s-162 72.674-162 162zM783.53 314.195c-41.823 41.823-91.608 72.783-145.92 91.526 58.172 40.066 96.392 107.122 96.392 182.943 0 122.409-99.588 222.002-222.002 222.002s-222.002-99.588-222.002-222.002c0-75.824 38.22-142.875 96.394-182.943-54.315-18.744-104.098-49.706-145.92-91.526-72.53-72.531-112.473-168.958-112.473-271.53h60.002c0 178.656 145.344 324 324 324s324-145.344 324-324h60.002c0 102.572-39.944 198.999-112.472 271.53z" />
<glyph unicode="&#xe903;" glyph-name="app-filters" d="M426.667 170.667h170.667v85.333h-170.667v-85.333zM128 682.667v-85.333h768v85.333h-768zM256 384h512v85.333h-512v-85.333z" />
<glyph unicode="&#xe904;" glyph-name="app-main" d="M170.667 597.334h170.667v170.667h-170.667v-170.667zM426.667 85.334h170.667v170.667h-170.667v-170.667zM170.667 85.334h170.667v170.667h-170.667v-170.667zM170.667 341.334h170.667v170.667h-170.667v-170.667zM426.667 341.334h170.667v170.667h-170.667v-170.667zM682.667 768v-170.667h170.667v170.667h-170.667zM426.667 597.334h170.667v170.667h-170.667v-170.667zM682.667 341.334h170.667v170.667h-170.667v-170.667zM682.667 85.334h170.667v170.667h-170.667v-170.667z" />
<glyph unicode="&#xe905;" glyph-name="expand_less" d="M512 597.334l-256-256 60.16-60.16 195.84 195.413 195.84-195.413 60.16 60.16z" />
<glyph unicode="&#xe906;" glyph-name="device-all" d="M213.332 650.667h672v74.667h-672c-41.067 0-74.667-33.6-74.667-74.667v-410.667h-74.667v-112h522.667v112h-373.333v410.667zM922.666 576h-224c-20.533 0-37.333-16.8-37.333-37.333v-373.333c0-20.533 16.8-37.333 37.333-37.333h224c20.533 0 37.333 16.8 37.333 37.333v373.333c0 20.533-16.8 37.333-37.333 37.333zM885.332 240h-149.333v261.333h149.333v-261.333z" />
<glyph unicode="&#xe907;" glyph-name="device-mobile" d="M647.757 853.334h-310.303c-53.528 0-96.97-43.443-96.97-96.97v-659.393c0-53.528 43.443-96.97 96.97-96.97h310.303c53.528 0 96.97 43.443 96.97 96.97v659.393c0 53.528-43.443 96.97-96.97 96.97zM492.607 38.788c-32.193 0-58.182 25.989-58.182 58.182s25.989 58.182 58.182 58.182 58.182-25.989 58.182-58.182-25.989-58.182-58.182-58.182zM667.151 193.939h-349.090v543.031h349.090v-543.031z" />
<glyph unicode="&#xe908;" glyph-name="device-tablet" d="M766.223 896.001h-547.555c-53.974 0-97.778-43.805-97.778-97.778v-743.111c0-53.974 43.805-97.778 97.778-97.778h547.555c53.974 0 97.778 43.805 97.778 97.778v743.111c0 53.974-43.805 97.778-97.778 97.778zM492.445-3.556c-32.46 0-58.666 26.205-58.666 58.666s26.205 58.666 58.666 58.666 58.666-26.205 58.666-58.666-26.205-58.666-58.666-58.666zM785.781 152.886h-586.666v625.779h586.666v-625.779z" />
<glyph unicode="&#xe909;" glyph-name="device-desktop" d="M896 853.334h-768c-46.933 0-85.333-38.4-85.333-85.333v-512c0-46.933 38.4-85.333 85.333-85.333h298.667l-85.333-128v-42.667h341.333v42.667l-85.333 128h298.667c46.933 0 85.333 38.4 85.333 85.333v512c0 46.933-38.4 85.333-85.333 85.333zM896 341.334h-768v426.667h768v-426.667z" />
<glyph unicode="&#xe90a;" glyph-name="device-mobileappios" d="M740.9 403.614c-0.362 66.408 29.676 116.532 90.474 153.444-34.018 48.676-85.408 75.456-153.264 80.704-64.236 5.066-134.445-37.456-160.14-37.456-27.142 0-89.388 35.646-138.245 35.646-100.97-1.628-208.272-80.522-208.272-241.024q0-71.112 26.056-146.93c23.162-66.408 106.76-229.262 193.978-226.548 45.6 1.086 77.808 32.39 137.16 32.39 57.542 0 87.398-32.39 138.245-32.39 87.942 1.266 163.578 149.282 185.654 215.872-117.978 55.552-111.646 162.854-111.646 166.292zM638.484 700.732c49.4 58.628 44.876 112.008 43.428 131.188-43.608-2.534-94.094-29.676-122.864-63.152-31.666-35.828-50.304-80.16-46.322-130.102 47.228-3.619 90.294 20.628 125.76 62.066z" />
<glyph unicode="&#xe90b;" glyph-name="device-mobileappandroid" d="M298.668 213.335c0-19.555 16-35.555 35.555-35.555h35.555v-124.445c0-29.51 23.823-53.332 53.332-53.332s53.332 23.823 53.332 53.332v124.445h71.11v-124.445c0-29.51 23.823-53.332 53.332-53.332s53.332 23.823 53.332 53.332v124.445h35.555c19.555 0 35.555 16 35.555 35.555v355.555h-426.668v-355.555zM209.777 568.89c-29.51 0-53.332-23.823-53.332-53.332v-248.89c0-29.51 23.823-53.332 53.332-53.332s53.332 23.823 53.332 53.332v248.89c0 29.51-23.823 53.332-53.332 53.332zM814.223 568.89c-29.51 0-53.332-23.823-53.332-53.332v-248.89c0-29.51 23.823-53.332 53.332-53.332s53.332 23.823 53.332 53.332v248.89c0 29.51-23.823 53.332-53.332 53.332zM637.51 776.535l46.223 46.223c7.11 7.11 7.11 18.132 0 25.245s-18.132 7.11-25.245 0l-52.623-52.623c-28.090 14.223-60.090 22.4-93.868 22.4-34.132 0-66.132-8.177-94.577-22.4l-52.977 52.623c-7.11 7.11-18.132 7.11-25.245 0s-7.11-18.132 0-25.245l46.577-46.577c-52.623-38.755-87.11-100.977-87.11-171.732h426.668c0 70.755-34.49 133.332-87.823 172.090zM440.89 675.557h-35.555v35.555h35.555v-35.555zM618.668 675.557h-35.555v35.555h35.555v-35.555z" />
<glyph unicode="&#xe90c;" glyph-name="device-mobileapp" d="M336.857 236.778l-33.845 94.11h-129.574l-33.148-94.11h-58.412l126.794 340.28h60.267l126.794-340.28h-58.879zM288.413 378.638l-31.758 92.257c-2.316 6.181-5.523 15.915-9.621 29.205s-6.916 23.027-8.46 29.205c-4.171-19.007-10.276-39.792-18.31-62.353l-30.598-88.314h98.747zM555.219 232.141c-32.451 0-57.64 11.665-75.565 35.001h-3.244c2.163-21.634 3.244-34.772 3.244-39.405v-105.006h-54.471v370.415h44.042c1.236-4.791 3.785-16.224 7.651-34.304h2.783c17 25.961 42.495 38.943 76.492 38.943 31.989 0 56.907-11.591 74.756-34.772s26.775-55.706 26.775-97.586c0-41.877-9.078-74.564-27.235-98.052s-43.229-35.233-75.218-35.233zM542.008 453.278c-21.634 0-37.434-6.335-47.401-19.007s-14.951-32.915-14.951-60.732v-8.113c0-31.215 4.946-53.816 14.836-67.802s26.040-20.978 48.445-20.978c18.853 0 33.378 7.725 43.578 23.178s15.297 37.475 15.297 66.063c0 28.744-5.063 50.494-15.182 65.251s-24.997 22.137-44.622 22.137zM841.499 232.141c-32.451 0-57.64 11.665-75.565 35.001h-3.244c2.163-21.634 3.244-34.772 3.244-39.405v-105.006h-54.471v370.415h44.042c1.236-4.791 3.785-16.224 7.651-34.304h2.783c17 25.961 42.495 38.943 76.492 38.943 31.989 0 56.907-11.591 74.756-34.772s26.775-55.706 26.775-97.586c0-41.877-9.078-74.564-27.235-98.052s-43.229-35.233-75.218-35.233zM828.288 453.278c-21.634 0-37.434-6.335-47.401-19.007s-14.951-32.915-14.951-60.732v-8.113c0-31.215 4.946-53.816 14.836-67.802s26.040-20.978 48.445-20.978c18.853 0 33.378 7.725 43.578 23.178s15.297 37.475 15.297 66.063c0 28.744-5.063 50.494-15.182 65.251s-24.997 22.137-44.622 22.137z" />
<glyph unicode="&#xe90d;" glyph-name="realtime-clock" d="M511.615 810.668c-211.968 0-383.616-172.033-383.616-384.001s171.648-384.001 383.616-384.001c212.353 0 384.383 172.033 384.383 384.001s-172.033 384.001-384.383 384.001zM512 119.468c-169.729 0-307.199 137.473-307.199 307.199s137.473 307.199 307.199 307.199 307.199-137.473 307.199-307.199-137.473-307.199-307.199-307.199zM531.199 618.666h-57.6v-230.4l201.6-120.96 28.8 47.232-172.8 102.528z" />
<glyph unicode="&#xe90e;" glyph-name="realtime-calendar" d="M822.303 775.757h-38.789v77.575h-77.575v-77.575h-387.879v77.575h-77.575v-77.575h-38.789c-42.667 0-77.575-34.91-77.575-77.575v-620.607c0-42.667 34.91-77.575 77.575-77.575h620.607c42.667 0 77.575 34.91 77.575 77.575v620.607c0 42.667-34.91 77.575-77.575 77.575zM822.303 77.577h-620.607v504.243h620.607v-504.243z" />
<glyph unicode="&#xe90f;" glyph-name="mandatory" d="M771.241 335.561l-165.91 91.106 165.91 91.106c13.76 7.554 18.622 24.948 10.773 38.544l-22.729 39.362c-7.847 13.596-25.34 18.081-38.764 9.946l-161.858-98.131 4.053 189.238c0.336 15.696-12.296 28.598-27.993 28.598h-45.45c-15.701 0-28.329-12.902-27.993-28.598l4.053-189.238-161.858 98.131c-13.422 8.141-30.918 3.65-38.764-9.946l-22.729-39.362c-7.847-13.596-2.989-30.988 10.773-38.544l165.908-91.104-165.91-91.106c-13.76-7.554-18.622-24.948-10.773-38.544l22.729-39.362c7.847-13.596 25.342-18.081 38.764-9.946l161.858 98.131-4.053-189.238c-0.336-15.696 12.298-28.598 27.993-28.598h45.452c15.701 0 28.329 12.902 27.993 28.598l-4.053 189.238 161.858-98.131c13.422-8.141 30.918-3.65 38.764 9.946l22.729 39.362c7.847 13.596 2.989 30.988-10.773 38.542z" />
<glyph unicode="&#xe910;" glyph-name="expand_more" d="M707.84 572.16l-195.84-195.413-195.84 195.413-60.16-60.16 256-256 256 256z" />
<glyph unicode="&#xe911;" glyph-name="broom-clean" d="M640 256h170.667v-85.333h-170.667zM640 597.334h298.667v-85.333h-298.667zM640 426.667h256v-85.333h-256zM128 170.667c0-46.933 38.4-85.333 85.333-85.333h256c46.933 0 85.333 38.4 85.333 85.333v426.667h-426.667v-426.667zM213.333 512h256v-341.333h-256v341.333zM426.667 768h-170.667l-42.667-42.667h-128v-85.333h512v85.333h-128z" />
<glyph unicode="&#xe912;" glyph-name="compare-icon" d="M393.539 347.429h-277.729v-79.238h277.729v-118.857l158.080 158.476-158.080 158.476v-118.857zM630.461 387.048v118.857h277.729v79.238h-277.729v118.857l-158.080-158.476 158.080-158.477z" />
<glyph unicode="&#xe913;" glyph-name="drag" d="M469.333 170.667c0-46.933-38.4-85.333-85.333-85.333s-85.333 38.4-85.333 85.333 38.4 85.333 85.333 85.333 85.333-38.4 85.333-85.333zM384 512c-46.933 0-85.333-38.4-85.333-85.333s38.4-85.333 85.333-85.333 85.333 38.4 85.333 85.333-38.4 85.333-85.333 85.333zM384 768c-46.933 0-85.333-38.4-85.333-85.333s38.4-85.333 85.333-85.333 85.333 38.4 85.333 85.333-38.4 85.333-85.333 85.333zM640 597.334c46.933 0 85.333 38.4 85.333 85.333s-38.4 85.333-85.333 85.333-85.333-38.4-85.333-85.333 38.4-85.333 85.333-85.333zM640 512c-46.933 0-85.333-38.4-85.333-85.333s38.4-85.333 85.333-85.333 85.333 38.4 85.333 85.333-38.4 85.333-85.333 85.333zM640 256c-46.933 0-85.333-38.4-85.333-85.333s38.4-85.333 85.333-85.333 85.333 38.4 85.333 85.333-38.4 85.333-85.333 85.333z" />
<glyph unicode="&#xe914;" glyph-name="close" d="M810.667 665.174l-60.16 60.16-238.507-238.507-238.507 238.507-60.16-60.16 238.507-238.507-238.507-238.507 60.16-60.16 238.507 238.507 238.507-238.507 60.16 60.16-238.507 238.507 238.507 238.507z" />
<glyph unicode="&#xe915;" glyph-name="burger" d="M128 170.667h768v85.333h-768v-85.333zM128 384h768v85.333h-768v-85.333zM128 682.667v-85.333h768v85.333h-768z" />
<glyph unicode="&#xe916;" glyph-name="mailto" d="M885.333 650.667c0 41.067-33.6 74.667-74.667 74.667h-597.333c-41.067 0-74.667-33.6-74.667-74.667v-448c0-41.067 33.6-74.667 74.667-74.667h597.333c41.067 0 74.667 33.6 74.667 74.667v448zM810.667 650.667l-298.667-186.667-298.667 186.667h597.333zM810.667 202.667h-597.333v373.333l298.667-186.667 298.667 186.667v-373.333z" />
<glyph unicode="&#xe917;" glyph-name="right-arrow" d="M250.88 762.88l336.213-336.213-336.213-336.213 90.453-90.453 426.667 426.667-426.667 426.667z" />
<glyph unicode="&#xe918;" glyph-name="down-arrow" d="M848.212 685.227l-336.213-336.213-336.213 336.213-90.453-90.453 426.667-426.667 426.667 426.667z" />
<glyph unicode="&#xe919;" glyph-name="left-arrow" d="M770.56 762.879l-336.213-336.213 336.213-336.213-90.453-90.453-426.667 426.667 426.667 426.667z" />
<glyph unicode="&#xe91a;" glyph-name="lock" d="M743.62 581.080h-38.603v77.207c0 106.544-86.471 193.015-193.015 193.015s-193.015-86.471-193.015-193.015v-77.207h-38.603c-42.463 0-77.207-34.742-77.207-77.207v-386.033c0-42.463 34.742-77.207 77.207-77.207h463.238c42.463 0 77.207 34.742 77.207 77.207v386.033c0 42.463-34.742 77.207-77.207 77.207zM396.19 658.287c0 64.081 51.728 115.81 115.81 115.81s115.81-51.728 115.81-115.81v-77.207h-231.62v77.207zM743.62 117.842h-463.238v386.033h463.238v-386.033zM512 233.652c42.463 0 77.207 34.742 77.207 77.207s-34.742 77.207-77.207 77.207-77.207-34.742-77.207-77.207 34.742-77.207 77.207-77.207z" />
<glyph unicode="&#xe91b;" glyph-name="chevron_left" d="M657.493 622.507l-60.16 60.16-256-256 256-256 60.16 60.16-195.413 195.84z" />
<glyph unicode="&#xe91c;" glyph-name="chevron_right" d="M426.667 682.667l-60.16-60.16 195.413-195.84-195.413-195.84 60.16-60.16 256 256z" />
<glyph unicode="&#xe91d;" glyph-name="add" d="M810.667 384h-256v-256h-85.333v256h-256v85.333h256v256h85.333v-256h256v-85.333z" />
<glyph unicode="&#xe91e;" glyph-name="arrow_downward" d="M853.333 426.667l-60.16 60.16-238.507-238.080v519.253h-85.333v-519.253l-238.080 238.507-60.587-60.587 341.333-341.333 341.333 341.333z" />
<glyph unicode="&#xe91f;" glyph-name="last_page" d="M238.507 622.507l195.84-195.84-195.84-195.84 60.16-60.16 256 256-256 256-60.16-60.16zM682.667 682.667h85.333v-512h-85.333v512z" />
<glyph unicode="&#xe920;" glyph-name="enabled" d="M512 810.669c211.968 0 384.002-172.034 384.002-384.002s-172.034-384.002-384.002-384.002c-211.968 0-384.002 172.034-384.002 384.002s172.034 384.002 384.002 384.002zM512 733.865c-169.573 0-307.198-137.625-307.198-307.198s137.625-307.198 307.198-307.198c169.573 0 307.198 137.625 307.198 307.198s-137.625 307.198-307.198 307.198zM356.866 446.827l-52.763-55.833 175.065-165.39 283.314 319.528-57.447 50.956-230.747-260.236z" />
<glyph unicode="&#xe921;" glyph-name="disabled" d="M512 810.668c-211.968 0-384.001-172.033-384.001-384.001s172.033-384.001 384.001-384.001 384.001 172.033 384.001 384.001-172.033 384.001-384.001 384.001zM204.801 426.667c0 169.729 137.473 307.199 307.199 307.199 71.039 0 136.321-24.192 188.161-64.897l-430.463-430.463c-40.705 51.84-64.897 117.119-64.897 188.161zM512 119.468c-71.039 0-136.321 24.192-188.161 64.897l430.463 430.463c40.705-51.84 64.897-117.119 64.897-188.161 0-169.729-137.473-307.199-307.199-307.199z" />
<glyph unicode="&#xe922;" glyph-name="delete" d="M682.667 554.667v-426.667h-341.333v426.667h341.333zM618.667 810.667h-213.333l-42.667-42.667h-149.333v-85.333h597.333v85.333h-149.333l-42.667 42.667zM768 640h-512v-512c0-46.933 38.4-85.333 85.333-85.333h341.333c46.933 0 85.333 38.4 85.333 85.333v512z" />
<glyph unicode="&#xe923;" glyph-name="import_export" d="M384 810.667l-170.667-170.24h128v-299.093h85.333v299.093h128l-170.667 170.24zM682.667 212.907v299.093h-85.333v-299.093h-128l170.667-170.24 170.667 170.24h-128z" />
<glyph unicode="&#xe924;" glyph-name="accept" d="M384 248.747l-177.92 177.92-60.587-60.16 238.507-238.507 512 512-60.16 60.16-451.84-451.413z" />
<glyph unicode="&#xe925;" glyph-name="search" d="M661.333 341.334h-33.707l-11.947 11.52c41.813 48.64 66.987 111.787 66.987 180.48 0 153.173-124.16 277.333-277.333 277.333s-277.333-124.16-277.333-277.333 124.16-277.333 277.333-277.333c68.693 0 131.84 25.173 180.48 66.987l11.52-11.947v-33.707l213.333-212.907 63.573 63.573-212.907 213.333zM405.333 341.334c-106.24 0-192 85.76-192 192s85.76 192 192 192 192-85.76 192-192-85.76-192-192-192z" />
<glyph unicode="&#xe926;" glyph-name="clone" d="M682.667 896h-512c-46.933 0-85.333-38.4-85.333-85.333v-597.333h85.333v597.333h512v85.333zM640 725.334h-298.667c-46.933 0-84.907-38.4-84.907-85.333l-0.427-597.333c0-46.933 37.973-85.333 84.907-85.333h469.76c46.933 0 85.333 38.4 85.333 85.333v426.667l-256 256zM341.333 42.667v597.333h256v-213.333h213.333v-384h-469.333z" />
<glyph unicode="&#xe927;" glyph-name="edit" d="M128 202.667v-160h160l471.893 471.893-160 160-471.893-471.893zM252.587 128h-39.253v39.253l386.56 386.56 39.253-39.253-386.56-386.56zM883.627 698.454l-99.84 99.84c-8.533 8.533-19.2 12.373-30.293 12.373s-21.76-4.267-29.867-12.373l-78.080-78.080 160-160 78.080 78.080c16.64 16.64 16.64 43.52 0 60.16z" />
<glyph unicode="&#xe928;" glyph-name="section-equalize" d="M725.333 42.667h85.333v256h-85.333v-256zM213.333 42.667h85.333v426.667h-85.333v-426.667zM896 469.334h-85.333v341.333h-85.333v-341.333h-85.333v-85.333h256v85.333zM384 213.334h85.333v-170.667h85.333v170.667h85.333v85.333h-256v-85.333zM554.667 810.667h-85.333v-426.667h85.333v426.667zM384 554.667v85.333h-85.333v170.667h-85.333v-170.667h-85.333v-85.333h256z" />
<glyph unicode="&#xe929;" glyph-name="app-logout" d="M600.747 273.494l110.507 110.507h-412.587v85.333h412.587l-110.507 110.507 60.587 60.16 213.333-213.333-213.333-213.333-60.587 60.16zM810.667 810.667c47.128 0 85.333-38.205 85.333-85.333v0-199.253l-85.333 85.333v113.92h-597.333v-597.333h597.333v113.92l85.333 85.333v-199.253c0-47.128-38.205-85.333-85.333-85.333v0h-597.333c-47.36 0-85.333 38.4-85.333 85.333v597.333c0 47.36 37.973 85.333 85.333 85.333h597.333z" />
<glyph unicode="&#xe92a;" glyph-name="section-blacklist" d="M251.56 2.667c-46.067 0-83.56 37.080-83.56 82.667v682.667c0 45.587 37.68 82.667 84 82.667h345.573l258.427-254.453v-510.88c0-45.587-37.68-82.667-84-82.667zM249.333 82.667h525.333v474.667h-216.667v213.333h-308.667zM512.48 241.627l-90.52-90.507-57.507 57.507 90.507 90.507-91.92 91.933 56.56 56.56 91.933-91.92 90.507 90.507 57.507-57.507-90.507-90.52 92-91.92-56.64-56.573z" />
<glyph unicode="&#xe92b;" glyph-name="section-links" d="M725.334 640.001h-170.666v-85.335h170.666c70.4 0 128-57.6 128-128s-57.6-128-128-128h-170.666v-85.335h170.666c117.76 0 213.334 95.574 213.334 213.334s-95.574 213.334-213.334 213.334zM469.334 298.667h-170.666c-70.4 0-128 57.6-128 128s57.6 128 128 128h170.666v85.335h-170.666c-117.76 0-213.334-95.574-213.334-213.334s95.574-213.334 213.334-213.334h170.666v85.335zM341.334 469.332h341.334v-85.335h-341.334v85.335z" />
<glyph unicode="&#xe92c;" glyph-name="section-synonyms" d="M532.724 346.075v-282.073h-41.448v282.073h41.448zM739.962 225.186v-80.592h-124.344v80.592h124.344zM947.2 265.481v-120.889h-82.896v120.889h82.896zM408.38 708.74v-80.592h-248.685v-402.962h248.685v-80.592h-331.58v564.148h331.58zM657.068 507.259l124.344-83.734-124.344-77.451v40.314l-373.028-0.016v80.592l373.028 0.032v40.265zM947.2 507.259v-120.889h-82.896v120.889h82.896zM532.724 789.335v-282.073h-41.448v282.073h41.448zM947.2 708.74v-80.592h-124.344v80.592h124.344zM698.516 708.74v-80.592h-82.896v80.592h82.896z" />
<glyph unicode="&#xe92d;" glyph-name="section-analitics" d="M945.778 584.404c0-43.378-35.491-78.869-78.869-78.869-7.098 0-13.802 0.789-20.112 2.76l-140.385-139.992c1.971-6.309 2.76-13.407 2.76-20.505 0-43.378-35.491-78.869-78.869-78.869s-78.869 35.491-78.869 78.869c0 7.098 0.789 14.196 2.76 20.505l-100.557 100.557c-6.309-1.971-13.407-2.76-20.505-2.76s-14.196 0.789-20.505 2.76l-179.425-179.821c1.971-6.309 2.76-13.014 2.76-20.112 0-43.378-35.491-78.869-78.869-78.869s-78.869 35.491-78.869 78.869c0 43.378 35.491 78.869 78.869 78.869 7.098 0 13.802-0.789 20.112-2.76l179.821 179.425c-1.971 6.309-2.76 13.407-2.76 20.505 0 43.378 35.491 78.869 78.869 78.869s78.869-35.491 78.869-78.869c0-7.098-0.789-14.196-2.76-20.505l100.557-100.557c6.309 1.971 13.407 2.76 20.505 2.76s14.196-0.789 20.505-2.76l139.992 140.385c-1.971 6.309-2.76 13.014-2.76 20.112 0 43.378 35.491 78.869 78.869 78.869s78.869-35.491 78.869-78.869z" />
<glyph unicode="&#xe92e;" glyph-name="full-screen" d="M237.714 316.95h-109.716v-274.286h274.286v109.716h-164.571v164.571zM127.998 536.382h109.716v164.571h164.571v109.716h-274.286v-274.286zM786.286 152.38h-164.571v-109.716h274.286v274.286h-109.716v-164.571zM621.716 810.668v-109.716h164.571v-164.571h109.716v274.286h-274.286z" />
<glyph unicode="&#xe92f;" glyph-name="no-full-screen" d="M127.999 207.238h164.57v-164.57h109.716v274.285h-274.285v-109.716zM292.571 646.096h-164.57v-109.716h274.285v274.285h-109.716v-164.57zM621.716 42.666h109.716v164.57h164.57v109.716h-274.285v-274.285zM731.429 646.096v164.57h-109.716v-274.285h274.285v109.716h-164.57z" />
<glyph unicode="&#xe930;" glyph-name="preview" d="M512 614.402c132.307 0 250.299-72.702 307.899-187.735-57.6-115.028-175.243-187.735-307.899-187.735s-250.299 72.702-307.899 187.735c57.6 115.028 175.591 187.735 307.899 187.735v0zM512 682.669c-174.547 0-323.609-106.156-384-256.002 60.391-149.846 209.455-256.002 384-256.002s323.609 106.156 384 256.002c-60.391 149.846-209.455 256.002-384 256.002zM512 512.001c48.174 0 87.271-38.228 87.271-85.334s-39.099-85.334-87.271-85.334c-48.174 0-87.271 38.228-87.271 85.334s39.099 85.334 87.271 85.334v0zM512 580.267c-86.575 0-157.091-68.948-157.091-153.6s70.518-153.6 157.091-153.6c86.575 0 157.091 68.948 157.091 153.6s-70.518 153.6-157.091 153.6z" />
<glyph unicode="&#xe931;" glyph-name="select-all" d="M127.999 725.333h85.332v85.332c-46.935 0-85.332-38.402-85.332-85.332zM127.999 383.998h85.332v85.332h-85.332v-85.332zM298.669 42.665h85.332v85.332h-85.332v-85.332zM127.999 554.668h85.332v85.332h-85.332v-85.332zM554.669 810.669h-85.332v-85.332h85.332v85.332zM810.666 810.669v-85.332h85.332c0 46.935-38.402 85.332-85.332 85.332zM213.334 42.665v85.332h-85.332c0-46.935 38.402-85.332 85.332-85.332zM127.999 213.335h85.332v85.332h-85.332v-85.332zM384 810.669h-85.332v-85.332h85.332v85.332zM469.332 42.665h85.332v85.332h-85.332v-85.332zM810.666 383.998h85.332v85.332h-85.332v-85.332zM810.666 42.665c46.935 0 85.332 38.402 85.332 85.332h-85.332v-85.332zM810.666 554.668h85.332v85.332h-85.332v-85.332zM810.666 213.335h85.332v85.332h-85.332v-85.332zM640.002 42.665h85.332v85.332h-85.332v-85.332zM640.002 725.333h85.332v85.332h-85.332v-85.332zM298.669 213.335h426.665v426.665h-426.665v-426.665zM384 554.668h256.001v-256.001h-256.001v256.001z" />
<glyph unicode="&#xe932;" glyph-name="redirections" d="M760.975 580.531v-111.235l179.325 181.083-179.325 179.261v-110.488l-611.921-0.818 0.335-138.583 611.592 0.779zM262.987 383.896l-179.261-179.242 179.287-181.103v111.254l611.592-0.779 0.315 138.603-611.882 0.779-0.039 110.488zM859.292 280.775v-0.058l15.629 0.058h-15.629z" />
<glyph unicode="&#xe933;" glyph-name="user-admin" d="M485.375 340.266h53.319c2.665 0 4.905-1.52 6.035-3.677l0.629-1.724 4.887-34.344c5.48-2.161 10.566-4.801 15.386-7.856l7.053-4.887 33.103 12.96c2.333 0.81 4.79 0.405 6.623-1.032l1.596-1.774 26.658-44.712c1.421-2.245 1.138-5.046-0.283-7.071l-1.272-1.353-28.213-21.384c0.445-4.319 0.888-8.424 0.888-12.743l-0.194-6.263-0.694-6.263 28.213-21.384c1.954-1.727 2.914-4.285 2.309-6.678l-0.754-1.746-26.658-44.712c-1.334-2.106-3.54-3.24-5.872-3.219l-2.346 0.413-33.103 12.96c-4.593-3.457-9.479-6.528-14.597-9.152l-7.842-3.591-4.887-34.344c-0.533-2.592-2.346-4.631-4.755-5.343l-1.908-0.272h-53.319c-2.665 0-4.905 1.52-6.035 3.677l-0.629 1.724-4.887 34.344c-5.48 2.161-10.566 4.801-15.386 7.856l-7.053 4.887-33.103-12.96c-2.333-0.81-4.79-0.405-6.623 1.032l-1.596 1.774-26.658 44.712c-1.421 2.245-1.28 4.907 0.086 6.989l1.247 1.435 28.213 21.384c-0.445 4.319-0.889 8.424-0.889 12.743l0.305 6.373 0.804 6.373-28.213 21.384c-1.954 1.727-2.914 4.285-2.309 6.678l0.754 1.746 26.658 44.712c1.334 2.106 3.54 3.24 5.872 3.219l2.346-0.413 33.103-12.96c4.444 3.457 9.38 6.432 14.548 8.992l7.891 3.537 4.887 34.344c0.533 2.592 2.346 4.631 4.755 5.343l1.908 0.272h53.319zM706.4 361.867c77.217 0 228.629-41.173 237.219-122.334l0.381-7.266v-64.8l-264.651-0.033c3.558 13.817 5.451 28.305 5.451 43.232 0 56.589-27.201 106.824-69.243 138.344 33.14 8.549 65.872 12.855 90.841 12.855zM382.4 383.468c20.736 0 45.597-2.222 72.138-6.392l13.139-2.162-6.281 1.026c-42.387-12.963-77.85-41.787-99.469-79.55-56.033-3.455-114.793-20.429-153.658-38.369l-8.605-4.152 144.978-0.010c-3.553-13.805-5.441-28.277-5.441-43.189 0-14.928 1.893-29.414 5.451-43.232l-264.651 0.033v64.8c0 100.657 201.311 151.201 302.399 151.201zM512 253.868c-23.747 0-43.199-19.452-43.199-43.199s19.452-43.199 43.199-43.199c23.747 0 43.199 19.452 43.199 43.199s-19.452 43.199-43.199 43.199zM706.4 642.668c59.616 0 107.999-48.383 107.999-107.999 0-40.607-22.897-75.599-55.728-94.177-15.552-8.641-33.265-13.825-52.271-13.825s-36.719 5.184-52.271 13.825c-32.831 18.575-55.728 53.567-55.728 94.177 0 59.616 48.383 107.999 107.999 107.999zM382.4 772.267c83.375 0 151.201-67.823 151.201-151.201s-67.823-151.201-151.201-151.201c-83.375 0-151.201 67.823-151.201 151.201s67.823 151.201 151.201 151.201zM382.4 685.867c-35.857 0-64.8-28.943-64.8-64.8s28.943-64.8 64.8-64.8c35.857 0 64.8 28.943 64.8 64.8s-28.943 64.8-64.8 64.8z" />
<glyph unicode="&#xe934;" glyph-name="grid-big" d="M435.202 349.869v-307.198h-307.198v307.198h307.198zM896.002 349.869v-307.198h-307.198v307.198h307.198zM435.202 810.669v-307.198h-307.198v307.198h307.198zM896.002 810.669v-307.198h-307.198v307.198h307.198z" />
<glyph unicode="&#xe935;" glyph-name="grid-small" d="M260.414 175.081v-132.416h-132.416v132.416h132.416zM896.002 175.081v-132.416h-132.416v132.416h132.416zM684.139 175.081v-132.416h-132.416v132.416h132.416zM472.276 175.081v-132.416h-132.416v132.416h132.416zM260.414 386.943v-132.416h-132.416v132.416h132.416zM896.002 386.943v-132.416h-132.416v132.416h132.416zM684.139 386.943v-132.416h-132.416v132.416h132.416zM472.276 386.943v-132.416h-132.416v132.416h132.416zM260.414 598.806v-132.416h-132.416v132.416h132.416zM896.002 598.806v-132.416h-132.416v132.416h132.416zM684.139 598.806v-132.416h-132.416v132.416h132.416zM472.276 598.806v-132.416h-132.416v132.416h132.416zM260.414 810.669v-132.416h-132.416v132.416h132.416zM472.276 810.669v-132.416h-132.416v132.416h132.416zM684.139 810.669v-132.416h-132.416v132.416h132.416zM896.002 810.669v-132.416h-132.416v132.416h132.416z" />
<glyph unicode="&#xe936;" glyph-name="deselectall" d="M383.999 128.003v-85.332h-85.332v85.332h85.332zM213.336 128.003v-85.332c-46.935 0-85.332 38.402-85.332 85.332v0h85.332zM554.669 128.003v-85.332h-85.332v85.332h85.332zM896.002 128.003c0-46.935-38.402-85.332-85.332-85.332v0 85.332zM725.332 128.003v-85.332h-85.332v85.332h85.332zM213.336 298.666v-85.332h-85.332v85.332h85.332zM896.002 298.666v-85.332h-85.332v85.332h85.332zM725.332 639.999v-426.665h-426.665v426.665h426.665zM639.753 607.478l-201.367-249.2-77.664 68.391-52.837-67.008 143.88-120.599 254.363 314.788-66.375 53.631zM213.336 469.336v-85.332h-85.332v85.332h85.332zM896.002 469.336v-85.332h-85.332v85.332h85.332zM213.336 639.999v-85.332h-85.332v85.332h85.332zM896.002 639.999v-85.332h-85.332v85.332h85.332zM213.336 810.669v-85.332h-85.332c0 46.935 38.402 85.332 85.332 85.332v0zM554.669 810.669v-85.332h-85.332v85.332h85.332zM810.664 810.669c46.935 0 85.332-38.402 85.332-85.332v0h-85.332zM383.999 810.669v-85.332h-85.332v85.332h85.332zM725.332 810.669v-85.332h-85.332v85.332h85.332z" />
<glyph unicode="&#xe937;" glyph-name="config" d="M264.96 342.616l51.201-88.318c3.411-5.548 9.814-7.678 15.787-5.548l63.572 25.601c13.226-10.239 27.307-18.773 43.094-25.173l9.387-67.839c1.281-5.972 6.399-10.665 12.801-10.665h102.399c6.399 0 11.52 4.692 12.801 11.095l9.387 67.839c15.362 6.399 29.868 14.931 43.094 25.173l63.572-25.601c5.972-2.133 12.375 0 15.787 5.548l51.201 88.318c3.411 5.548 1.706 12.375-2.986 16.641l-54.189 42.238c1.281 8.109 1.706 16.641 1.706 24.746 0 8.534-0.855 16.641-1.706 25.173l54.189 42.238c4.692 3.842 6.399 11.095 2.986 16.641l-51.201 88.318c-3.411 5.548-9.814 7.678-15.787 5.548l-63.572-25.601c-13.226 10.239-27.307 18.773-43.094 25.173l-9.387 67.839c-1.281 5.972-6.399 10.665-12.801 10.665h-102.399c-6.399 0-11.52-4.692-12.801-11.095l-9.387-67.839c-15.362-6.399-30.293-14.506-43.094-24.746l-63.572 25.601c-5.972 2.133-12.375 0-15.787-5.548l-51.201-88.318c-3.411-5.548-1.706-12.375 2.986-16.641l54.189-42.238c-1.281-8.534-2.133-16.641-2.133-25.173s0.855-16.641 1.706-25.173l-54.189-42.238c-4.692-4.267-5.972-11.095-2.561-16.641zM512 499.629c40.108 0 72.962-32.854 72.962-72.962s-32.854-72.962-72.962-72.962c-40.108 0-72.962 32.854-72.962 72.962s32.854 72.962 72.962 72.962zM810.664 810.669h-597.334c-47.361 0-85.332-38.402-85.332-85.332v-597.334c0-46.935 37.971-85.332 85.332-85.332h597.334c47.361 0 85.332 38.402 85.332 85.332v597.334c0 46.935-37.971 85.332-85.332 85.332zM810.664 128.003h-597.334v597.334h597.334v-597.334z" />
<glyph unicode="&#xe938;" glyph-name="insight" d="M276.933 318.84c76.64 0 138.773-62.36 138.773-139.28s-62.133-139.267-138.773-139.267-138.76 62.373-138.76 139.267 62.12 139.28 138.76 139.28zM668 489.427c0.099 0 0.216 0.001 0.333 0.001 45.656 0 82.667-37.011 82.667-82.667s-37.011-82.667-82.667-82.667c-45.655 0-82.666 37.011-82.667 82.666v0c0 0.055 0 0.121 0 0.187 0 45.501 36.844 82.396 82.325 82.48h0.008zM396.093 547.267c0.067 0 0.147 0 0.227 0 34.227 0 61.973-27.746 61.973-61.973s-27.746-61.973-61.973-61.973c-34.227 0-61.973 27.746-61.973 61.973 0 0.014 0 0.028 0 0.042v-0.002c0 0.032 0 0.069 0 0.107 0 34.126 27.63 61.798 61.74 61.867h0.007zM709.147 813.040c0.091 0 0.199 0.001 0.307 0.001 50.876 0 92.12-41.244 92.12-92.12s-41.244-92.12-92.12-92.12c-50.876 0-92.12 41.243-92.12 92.119v0c0 0.036 0 0.078 0 0.12 0 50.745 41.083 91.894 91.803 92h0.010zM558.16 720.92c0 1.333 0 2.667 0 4h-490.28v-524.707h1c6.29 62.59 39.243 116.409 87.172 150.579l0.641 0.434v284.867h427.307c-16.183 23.704-25.84 52.982-25.84 84.516 0 0.109 0 0.218 0 0.328v-0.017zM863.293 724.96v0c-0.868-10.377-2.577-19.915-5.088-29.123l0.261 1.123c-0.173-0.693-0.36-1.333-0.547-2.040-3.919-22.316-12.214-42.165-24.002-59.441l0.336 0.521h33.053v-399.627h-373.747c1.537-13.225 2.423-28.566 2.44-44.11v-0.023c-0.034-15.876-1.977-31.281-5.61-46.021l0.277 1.327h465.453v577.333z" />
<glyph unicode="&#xe939;" glyph-name="launch" d="M810.667 127.999h-597.333v597.333h298.667v85.333h-298.667c-47.36 0-85.333-38.4-85.333-85.333v-597.333c0-46.933 37.973-85.333 85.333-85.333h597.333c46.933 0 85.333 38.4 85.333 85.333v298.667h-85.333v-298.667zM597.333 810.666v-85.333h153.173l-419.413-419.413 60.16-60.16 419.413 419.413v-153.173h85.333v298.667h-298.667z" />
<glyph unicode="&#xe93a;" glyph-name="info" d="M580.528 580.858v-582.499h-137.057v582.499h137.057zM580.528 854.976v-145.626h-137.057v145.626h137.057z" />
<glyph unicode="&#xe93b;" glyph-name="attributeranking" d="M470.471 276.923h-255.382l-50.344-118.198h-97.772l229.837 510.764h93.4l230.531-510.764h-99.197zM439.112 351.354l-96.331 223.278-95.586-223.278zM955.435 466.502l-126.792 219.515-126.792-219.515h253.586zM701.849 346.15l126.792-219.515 126.792 219.515h-253.586z" />
<glyph unicode="&#xe93c;" glyph-name="boost" d="M430.254 137.311l12.321-4.829c20.144-59.603 43.454-97.062 70.091-112.879q38.958 27.971 62.099 113.545l14.817 3.496q9.491-94.149-75.753-179.309-75.42 47.2-83.577 179.973zM511.666 895.999q116.625-108.383 127.529-282.864l0.666-13.984-20.811-246.403 84.743-79.582-12.486-110.049-87.572 55.275-12.154-4.995-17.648-46.95-129.695 2.331-14.65 43.12-11.488 4.829-86.574-56.107-11.488 108.383 81.746 81.746-17.814 242.075q5.744 199.037 127.698 303.175zM473.207 655.756c-9.94-10.020-16.083-23.819-16.083-39.053 0-30.629 24.829-55.456 55.456-55.456s55.456 24.829 55.456 55.456c0 15.318-6.21 29.183-16.248 39.22v0c-10.043 10.016-23.903 16.208-39.208 16.208-15.389 0-29.315-6.26-39.371-16.374l-0.003-0.003z" />
<glyph unicode="&#xe93d;" glyph-name="bury" d="M616.939 435.475c0 15.218-12.338 27.555-27.555 27.555s-27.555-12.338-27.555-27.555c0-15.218 12.338-27.555 27.555-27.555v0c15.217 0.008 27.548 12.342 27.555 27.554v0.001zM768.121 643.577v-416.205c89.295 26.953 154.646 110.075 154.646 208.105-0.101 97.64-64.485 180.217-153.105 207.692l-1.541 0.412zM410.791 435.475c0 15.218-12.338 27.555-27.555 27.555s-27.555-12.338-27.555-27.555c0-15.218 12.338-27.555 27.555-27.555v0c15.217 0.008 27.548 12.342 27.555 27.554v0.001zM589.382 755.912h-14.606v66.104c0 21.532 12.798 40.357 27.555 40.357h51.498c13.305 0 24.094 10.786 24.094 24.094s-10.786 24.094-24.094 24.094v0h-51.498c-41.71 0-75.592-39.754-75.592-88.542v-66.104h-14.606c-36.771-0.053-68.293-22.472-81.699-54.378l-0.219-0.584h241.082c-13.589 32.519-45.13 54.952-81.914 54.964h-0.001zM187.029 559.253c11.46 21.384 24.665 39.826 39.92 56.348l-0.168-0.184-95.468 23.943c-1.76 0.463-3.777 0.727-5.858 0.727-13.232 0-23.957-10.726-23.957-23.957 0-0.040 0-0.076 0-0.116v0.007-82.519c20.58 16.15 46.851 25.898 75.401 25.898 0.067 0 0.134 0 0.201 0h9.927zM167.302 360.636c-6.88 22.451-10.842 48.258-10.842 74.99s3.962 52.537 11.33 76.863l-0.488-1.875c-37.307-5.054-65.76-36.699-65.76-74.99s28.453-69.936 65.371-74.947l0.391-0.041zM177.089 311.848c-0.057 0-0.122 0-0.188 0-28.549 0-54.821 9.749-75.67 26.102l0.268-0.203v-82.519c0.024-7.665 3.587-14.489 9.138-18.935l0.049-0.038c4.025-3.173 9.163-5.098 14.751-5.121h0.006c2.099 0.030 4.118 0.301 6.053 0.791l-0.181-0.040 95.468 23.943c-15.087 16.34-28.295 34.782-39.049 54.739l-0.705 1.429zM589.382 359.882c-33.109 0.074-61.232 21.351-71.516 50.966l-0.161 0.532h-62.791c-10.393-30.182-38.547-51.483-71.677-51.483s-61.282 21.301-71.517 50.953l-0.158 0.531h-105.707c12.048-108.569 104.354-193.347 216.084-193.347h283.547c4.97 0 9.788 0.151 14.606 0.451v192.745h-58.878c-10.615-30.060-38.735-51.233-71.814-51.347h-0.013zM421.935 652.914c-111.73 0-204.038-84.778-216.084-193.347h105.707c10.393 30.182 38.547 51.483 71.677 51.483s61.282-21.301 71.517-50.953l0.158-0.531h62.791c10.393 30.182 38.547 51.483 71.677 51.483s61.282-21.301 71.517-50.953l0.158-0.531h58.878v192.745c-4.819 0.3-9.636 0.451-14.606 0.451h-283.394z" />
<glyph unicode="&#xe93e;" glyph-name="productranking" d="M438.233 650.871q51.147-22.73 78.438-65.144t27.291-100.798q0-57.591-27.291-100.357t-78.438-65.656q-51.147-22.748-120.114-22.748h-119.726v-153.179h-98.599v530.612h218.323q68.947 0 120.114-22.73zM411.332 406.823q33.329 27.291 33.346 78.067t-33.346 78.050q-33.346 27.309-97.769 27.291h-115.165v-210.7h115.199q64.388 0 97.734 27.291zM938.933 462.761l-131.698 228.008-131.698-228.008h263.397zM675.536 337.753l131.698-228.008 131.698 228.008h-263.397z" />
<glyph unicode="&#xe93f;" glyph-name="promotions" d="M902.183 822.58c-2.391 3.943-4.758 7.317-7.335 10.523l0.145-0.187c-9.444 11.876-21.254 21.447-34.758 28.106l-0.597 0.266c-3.027 1.59-6.653 3.149-10.404 4.438l-0.565 0.168-1.163 0.375-1.163 0.355c-2.437 0.771-5.524 1.524-8.675 2.099l-0.499 0.077c-6.272 1.537-13.475 2.416-20.878 2.416 0 0 0 0 0 0v0c-0.035 0-0.068 0-0.107 0-7.494 0-14.757-0.957-21.689-2.753l0.6 0.13c-3.749-0.73-6.893-1.549-9.96-2.544l0.599 0.167-0.336-0.097-0.336-0.11c-14.625-4.841-27.191-12.417-37.678-22.19l0.061 0.058c-1.35-1.182-2.661-2.416-3.934-3.747l-2.733-2.733-2.455-2.978c-52.128-62.551-124.231-106.885-206.425-123.208l-2.29-0.378-2.474-0.465-47.507-4.399c-3.579-0.336-6.893-0.711-9.813-1.047-2.565-0.297-5.019-0.581-6.835-0.73h-205.492c-33.486-0.006-63.157-16.333-81.497-41.45l-0.202-0.288h-1.777c-55.703-0.106-100.832-45.24-100.931-100.937v-125.227c0.098-55.71 45.222-100.844 100.917-100.95h1.79c10.946-14.957 25.543-26.631 42.5-33.832l0.665-0.251 138.851-247.643c19.613-42.472 61.845-71.422 110.835-71.422 27.942 0 53.682 9.416 74.227 25.249l-0.287-0.21 44.845 21.983 9.361 9.361c22.020 22.025 35.634 52.447 35.634 86.053 0 20.564-5.101 39.938-14.104 56.923l0.317-0.662-0.995 1.873-1.085 1.873-56.925 95.22c72.101-20.781 132.96-61.444 178.135-115.637l0.464-0.578c2.582-3.13 5.267-5.943 8.133-8.557l0.065-0.060c4.521-4.297 9.495-8.211 14.811-11.631l0.396-0.236c3.515-2.473 7.521-4.811 11.727-6.809l0.502-0.213 1.143-0.543 1.163-0.485c11.799-5.247 25.568-8.307 40.049-8.314h0.003c11.734 0.017 23.001 2.007 33.485 5.667l-0.714-0.215c4.171 1.439 7.648 2.939 10.996 4.66l-0.472-0.222c14.465 7.078 26.549 16.975 35.949 29.061l0.169 0.228 0.375 0.485 0.355 0.485c2.151 2.862 3.747 5.187 4.457 6.421v0l0.375 0.581 0.355 0.601c9.717 15.037 15.507 33.4 15.543 53.114v542.612c0 0.016 0 0.028 0 0.046 0 19.36-5.559 37.424-15.166 52.68l0.244-0.412zM540.217 95.225l-42.041-20.601c-7.375-7.626-17.696-12.358-29.128-12.358-0.078 0-0.15 0-0.227 0h0.014c-2.961 0.006-5.848 0.33-8.624 0.932l0.271-0.047c-14.189 2.893-25.572 12.695-30.631 25.671l-0.099 0.285-159.613 284.627h-12.655c-11.523 0.014-20.859 9.355-20.859 20.879v0 20.821h-62.617c-11.523 0.014-20.859 9.355-20.859 20.879v0 125.181c0 11.524 9.336 20.871 20.859 20.879h62.617v20.937c0 11.524 9.336 20.871 20.859 20.879h207.424v-250.453h-54.677l137.669-230.324c2.818-5.464 4.476-11.932 4.476-18.777 0-11.478-4.644-21.872-12.151-29.402l0.001 0.001zM837.15 227.726c-0.102-4.026-1.369-7.744-3.474-10.837l0.044 0.068c-0.452-0.711-0.827-1.311-1.331-1.964-2.224-2.957-5.171-5.252-8.589-6.64l-0.132-0.046c-0.11 0-0.207-0.207-0.336-0.245-2.086-0.771-4.499-1.214-7.016-1.214-3.099 0-6.037 0.673-8.674 1.89l0.128-0.056c-0.62 0.297-1.124 0.84-1.757 1.215-1.995 1.099-3.694 2.433-5.154 3.997l-0.014 0.014c-0.207 0.245-0.504 0.336-0.672 0.543-58.932 70.881-138.776 122.539-230.011 145.6l-3.026 0.648v276.558c94.263 23.718 174.107 75.391 232.459 145.568l0.579 0.712c0.168 0.168 0.433 0.207 0.581 0.375 2.423 2.691 5.516 4.744 9.007 5.895l0.147 0.042c0.788 0.245 1.537 0.278 2.319 0.452 1.182 0.397 2.56 0.693 3.983 0.835l0.081 0.005c2.128-0.123 4.122-0.544 5.985-1.227l-0.145 0.045h0.898c0.044 0.006 0.099 0.016 0.149 0.016s0.105-0.004 0.152-0.016l-0.004 0.001c0.129 0 0.226-0.207 0.336-0.245 3.542-1.455 6.486-3.746 8.689-6.632l0.038-0.048c0.473-0.549 0.912-1.165 1.294-1.812l0.036-0.062c2.061-3.025 3.328-6.737 3.424-10.745v-0.024z" />
<glyph unicode="&#xe940;" glyph-name="index" d="M673.546 701.63v17.731c0 20.15-16.35 36.501-36.501 36.501h-59.874c4.95 8.981 7.831 20.15 7.831 31.55 0 37.307-30.397 67.705-67.59 67.705s-67.59-30.512-67.59-67.82c0-11.285 2.877-22.454 7.831-31.55h-49.051c-20.15 0-36.501-16.35-36.501-36.501v-17.731h-126.314c-30.512 0-55.27-24.755-55.27-55.385v-545.322c0-30.512 24.755-55.385 55.27-55.385l532.31-0.577c30.512 0 55.385 24.755 55.385 55.385v545.437c0 30.512-24.755 55.385-55.385 55.385 0.115 0-104.552 0.577-104.552 0.577zM477.111 787.297c0 22.223 18.077 40.301 40.185 40.301 22.223 0 40.301-18.077 40.301-40.301 0-12.666-5.873-23.604-15.2-31.55h-50.088c-9.212 7.946-15.2 18.885-15.2 31.55zM778.213 133.281c0-18.769-15.2-33.966-33.966-33.966l-464.374 0.577c-18.769 0-33.966 15.2-33.966 33.966v478.423c0 18.769 15.2 33.966 33.966 33.966h92.229c0-14.969 12.089-27.058 27.058-27.058h247.328c14.969 0 27.058 12.089 27.058 27.058l70.698-0.577c18.769 0 33.966-15.2 33.966-33.966v-478.423zM420 500.474c0-26.519-21.497-48.016-48.016-48.016s-48.016 21.497-48.016 48.016c0 26.519 21.497 48.016 48.016 48.016s48.016-21.497 48.016-48.016zM666.176 527.303h-163.849c-15.085 0-27.289-11.974-27.289-27.058s12.204-27.058 27.289-27.058h163.965c15.085 0 27.289 11.974 27.289 27.058s-12.204 27.058-27.404 27.058zM420 364.143c0-26.519-21.497-48.016-48.016-48.016s-48.016 21.497-48.016 48.016c0 26.519 21.497 48.016 48.016 48.016s48.016-21.497 48.016-48.016zM666.176 391.778h-163.849c-15.085 0-27.289-12.55-27.289-27.635s12.204-27.635 27.289-27.635h163.965c15.085 0 27.289 12.55 27.289 27.635s-12.204 27.635-27.404 27.635zM420 218.371c0-26.519-21.497-48.016-48.016-48.016s-48.016 21.497-48.016 48.016c0 26.519 21.497 48.016 48.016 48.016s48.016-21.497 48.016-48.016zM666.176 246.121h-163.849c-15.085 0-27.289-12.55-27.289-27.635s12.204-27.635 27.289-27.635h163.965c15.085 0 27.289 12.55 27.289 27.635s-12.204 27.635-27.404 27.635z" />
<glyph unicode="&#xe941;" glyph-name="clipboard" d="M650.667 746.667h-106.668v53.332c0 29.332-24 53.332-53.332 53.332h-106.668c-29.336 0-53.332-24-53.332-53.332v-53.332h-106.668v-106.668h426.668v106.668zM490.667 746.667h-106.668v53.238c0.030 0.030 0.060 0.066 0.094 0.094h106.472c0.034-0.030 0.070-0.064 0.098-0.094v-53.238zM757.335 586.667v133.332c0 14.668-12 26.668-26.668 26.668h-53.332v-53.332h26.668v-106.668h-160l-160-160v-213.332h-213.332v480h26.668v53.332h-53.332c-14.67 0-26.668-12-26.668-26.668v-533.332c0-14.668 11.998-26.668 26.668-26.668h240v-160h533.332v586.668h-160zM543.999 511.241v-84.574h-84.574l84.574 84.574zM863.999 53.335h-426.668v320h160v160h266.668v-480z" />
<glyph unicode="&#xe942;" glyph-name="queries" d="M770.608 840.47c60.903 0 112.18-42.353 114.586-97.73l0.088-4.075v-494.336c0-15.945-12.925-28.87-28.87-28.87-15.007 0-27.339 11.449-28.738 26.090l-0.132 2.78-0.014 364.679h-671.593v-453.822c0-22.31 22.693-42.457 53.233-43.973l3.701-0.091h476.698c15.945 0 28.87-12.925 28.87-28.87 0-15.007-11.449-27.339-26.090-28.738l-2.78-0.132h-476.698c-60.903 0-112.18 42.353-114.586 97.73l-0.088 4.075v583.479c0 55.995 49.828 99.68 110.237 101.729l4.438 0.075h557.736zM563.248 561.394c102.715 0 185.975-83.26 185.975-185.975 0-46.065-16.881-88.409-44.92-121.026v0l8.012-7.725h22.604l142.772-143.057-42.631-42.631-143.057 142.772v22.604l-7.725 8.012c-32.617-28.039-74.961-44.92-121.026-44.92-102.715 0-185.975 83.26-185.975 185.975s83.26 185.975 185.975 185.975zM563.248 504.172c-71.242 0-128.752-57.51-128.752-128.752s57.51-128.752 128.752-128.752c71.242 0 128.752 57.51 128.752 128.752s-57.51 128.752-128.752 128.752zM770.608 782.73h-557.736c-31.146 0-55.037-19.288-56.827-41.399l-0.108-2.666v-48.608h671.593l0.014 48.608c0 22.31-22.693 42.457-53.233 43.973l-3.701 0.091z" />
<glyph unicode="&#xe943;" glyph-name="spiderweb" d="M520.902 816.233l228.981-74.4 141.518-194.783v-240.765l-141.518-194.783-228.981-74.4-228.981 74.4-141.518 194.783v240.765l141.518 194.783 228.981 74.4zM520.887 796.737l-217.508-70.678-134.437-185.026v-228.711l134.437-185.026 217.508-70.678 217.527 70.678 134.437 185.026v228.711l-134.437 185.026-217.527 70.678zM520.902 593.623l98.134-31.887 60.65-83.478v-103.186l-60.65-83.478-98.134-31.887-98.134 31.887-60.65 83.478v103.186l60.65 83.478 98.134 31.887zM520.887 574.127l-86.67-28.16-53.555-73.721v-91.14l53.555-73.721 86.67-28.16 86.67 28.16 53.574 73.721v91.14l-53.574 73.721-86.67 28.16zM530.55 853.335v-853.332h-18.55v853.332zM779.569 766.397l-501.576-690.361-15.009 10.904 501.576 690.361zM929.927 549.694l-811.569-263.694-5.731 17.643 811.569 263.694zM924.192 285.997l-811.569 263.694 5.731 17.643 811.569-263.694zM764.56 76.036l-501.576 690.361 15.009 10.904 501.576-690.361zM520.902 704.928l163.557-53.144 101.085-139.13v-171.974l-101.085-139.13-163.557-53.144-163.557 53.144-101.085 139.13v171.974l101.085 139.13 163.557 53.144zM520.887 685.432l-152.079-49.419-93.996-129.372v-159.927l93.996-129.372 152.079-49.419 152.097 49.419 93.996 129.372v159.927l-93.996 129.372-152.097 49.419z" />
<glyph unicode="&#xe944;" glyph-name="checkout" d="M334.382 818.349l-0.15-516.58h-45.009c-9.241 0-16.716 7.478-16.716 16.716l-0.254 483.167c0.296 9.345 7.86 16.801 17.183 16.93l44.945-0.213zM605.629 818.349c9.219 0 16.694-7.457 16.716-16.673v-0.021l-0.15-341.192c-25.639 23.916-57.563 40.018-92.038 46.411-14.337 2.019-28.95-1.188-41.186-8.963-17.565-9.983-27.569-29.46-25.404-49.533 0-39.657 25.871-101.639 45.498-142.674h-75.236l-0.213 512.648h171.966zM696.54 533.084l75.362-38.127c10.472-5.459 14.742-18.268 9.558-28.929-5.373-10.579-18.31-14.804-28.888-9.43l-0.086 0.064-75.299 38.105c-7.371 3.504-12.065 10.982-12.044 19.138 0.043 3.44 0.849 6.797 2.444 9.833 2.444 5.205 7.011 9.112 12.531 10.747 5.416 2.040 11.471 1.552 16.505-1.317l-0.086-0.086zM624.111 385.543l31.501-34.305v0.213c18.714-21.729 39.657-47.239 62.874-79.015 0.978-1.698 2.337-3.186 3.993-4.228 8.645-14.018 13.383-30.077 13.808-46.561 1.359-9.792 1.126-30.438 1.126-73.047 0-37.299 0.425-83.371-0.192-108.561l-227.765 0.213-148.453 169.629c-1.274 6.223-1.912 12.552-1.998 18.946-0.849 8.135 1.274 16.291 6.033 22.941h187.854c9.558-0.107 18.437 4.949 23.366 13.169 0.489 0.849 0.489 1.998 0.913 3.079h1.998l-1.317 2.465c2.655 6.882 2.273 14.571-1.106 21.176-22.728 42.141-59.135 121.901-59.135 156.631-0.064 1.274 0.043 2.548 0.275 3.825l0.638 0.489c3.782 0.849 35.005 4.228 105.674-67.101l-0.107 0.043zM690.36 445.741l75.362-38.105c10.365-5.609 14.55-18.332 9.58-28.972-5.438-10.685-18.478-14.975-29.207-9.601l-61.725 31.223s-25.065 10.197-25.15 26.677c-0.064 3.208 0.721 6.372 2.209 9.177 2.548 5.141 7.032 9.070 12.448 10.918 5.438 1.805 11.407 1.317 16.484-1.317zM238.82 801.654l0.275-483.188c-0.107-27.634 22.239-50.086 49.872-50.129h23.429c-5.205-12.511-7.774-25.914-7.539-39.401 0.128-13.169 1.848-26.296 5.056-39.040 1.21-3.907 3.25-7.498 5.948-10.579l161.219-184.243c5.416-6.012 13.105-9.345 21.176-9.134l265.681 1.552c14.932 2.697 25.871 15.549 26.274 30.673 0 0.935 2.911 69.542 2.911 130.207 0.532 26.615-0.51 53.251-3.079 79.782-6.055 48.599-20.305 69.82-29.46 78.676-6.647 9.112-13.34 17.162-19.859 25.596 26.488-7.011 54.207 5.331 66.654 29.738 4.164 8.049 6.308 16.994 6.265 26.063-0.021 15.506-6.287 30.374-17.418 41.165 7.393 5.309 13.424 12.256 17.629 20.327 4.035 8.114 6.159 17.036 6.223 26.085-0.043 21.729-12.32 41.632-31.648 51.446l-75.319 38.127c-13.679 7.072-29.567 8.349-44.181 3.611-4.631-1.698-9.006-3.95-13.105-6.69v239.129c-0.128 27.676-22.453 50.108-50.15 50.361h-316.001c-27.847 0.213-50.575-22.111-50.85-49.979v-0.15zM591.186 780.158l-45.223-0.128-0.233-132.373 45.455 0.403z" />
<glyph unicode="&#xe945;" glyph-name="users" d="M529.778 737.777c85.092 0 154.073-68.981 154.073-154.073 0-36.127-12.515-70.238-34.612-97.322l-3.772-4.447-3.494-3.818 0.527-0.177c87.817-28.327 140.943-109.633 144.827-213.736l0.172-6.15 0.057-6.202v-82.963c0-38.083-29.937-69.174-67.562-71.024l-3.548-0.086h-373.333c-38.083 0-69.174 29.937-71.024 67.562l-0.086 3.548v82.963c0 107.918 51.784 193.371 139.929 224.36l5.633 1.904-3.476 3.818c-21.983 24.956-35.475 56.499-37.965 90.341l-0.324 5.994-0.095 5.432c0 85.092 68.981 154.073 154.073 154.073zM571.258 438.519h-82.963c-103.093 0-165.925-83.572-165.925-186.667v-82.963c0-11.454 9.286-20.74 20.74-20.74h373.333c11.454 0 20.74 9.286 20.74 20.74v82.963c0 103.093-62.832 186.667-165.925 186.667zM529.778 687.407c-57.275 0-103.702-46.431-103.702-103.702s46.431-103.702 103.702-103.702c57.275 0 103.702 46.431 103.702 103.702s-46.431 103.702-103.702 103.702zM729.777 693.333c69.219 0 125.332-55.717 125.332-124.445 0-36.043-15.432-68.508-40.095-91.235 71.707-22.658 123.652-89.318 123.652-168.024v-62.223c0-28.637-23.38-51.851-52.222-51.851h-71.428v41.482h71.428c5.767 0 10.445 4.642 10.445 10.371v62.223c0 74.455-60.789 134.814-135.777 134.814h-10.445c-11.537 0-20.888 9.286-20.888 20.74 0 11.441 8.15 21.285 19.454 23.499 4.769 0.936 8.578 1.965 11.427 3.091 30.862 12.195 52.673 42.125 52.673 77.112 0 45.818-37.409 82.963-83.557 82.963-10.162 0-19.901-1.802-28.912-5.101-3.876 13.461-9.085 26.361-15.48 38.551 13.798 5.19 28.762 8.032 44.392 8.032zM340.911 646.753c-9.008 3.299-18.748 5.101-28.912 5.101-46.147 0-83.557-37.145-83.557-82.963 0-35.222 22.104-65.317 53.291-77.354 2.773-1.072 6.395-2.044 10.861-2.917 11.267-2.207 19.379-12.030 19.351-23.433-0.029-11.464-9.397-20.74-20.941-20.74h-10.341c-74.989 0-135.777-60.358-135.777-134.814v-62.223c0-5.727 4.675-10.371 10.445-10.371h74.419v-41.482h-74.419c-28.841 0-52.222 23.214-52.222 51.851v62.223c0 78.706 51.944 145.366 123.652 168.024-24.663 22.727-40.095 55.192-40.095 91.235 0 68.729 56.113 124.445 125.332 124.445 15.631 0 30.592-2.842 44.392-8.032-6.395-12.19-11.604-25.090-15.48-38.551z" />
<glyph unicode="&#xe946;" glyph-name="attributes" d="M96 104v432l256 0.043v213.291h320v-106.624l256-0.043v-538.667h-832zM352 472h-192v-304h192v304zM608 685.334h-192l-0.043-149.291 0.043-0.043v-368h192v517.333zM864 578.667l-192 0.043v-410.709h192v410.667z" />
<glyph unicode="&#xe947;" glyph-name="more" d="M512 810.667c211.968 0 384-172.032 384-384s-172.032-384-384-384c-211.968 0-384 172.032-384 384s172.032 384 384 384zM512 733.867c-169.579 0-307.2-137.621-307.2-307.2s137.621-307.2 307.2-307.2c169.579 0 307.2 137.621 307.2 307.2s-137.621 307.2-307.2 307.2zM725.333 396.191h-182.857v-182.857h-60.952v182.857h-182.857v60.952h182.857v182.857h60.952v-182.857h182.857z" />
<glyph unicode="&#xe948;" glyph-name="add2cart" d="M216.476 831.258c10.575 0 19.524-7.83 20.918-18.321v0l14.448-108.34h661.234c6.163 0 12.042-2.692 16.053-7.398 3.999-4.674 5.752-10.902 4.791-17.005v0l-63.328-401.068c-1.614-10.249-10.461-17.814-20.844-17.814v0h-538.791l8.444-63.328h488.131c46.566 0 84.436-37.858 84.436-84.436 0-46.566-37.87-84.436-84.436-84.436s-84.445 37.87-84.445 84.436c0 15.451 4.475 29.751 11.746 42.216v0h-361.224c7.271-12.465 11.738-26.765 11.738-42.216 0-46.566-37.87-84.436-84.436-84.436s-84.436 37.87-84.436 84.436c0 38.324 25.804 70.378 60.835 80.666v0l-79.328 594.826h-87.054c-11.664 0-21.108 9.447-21.108 21.108s9.447 21.108 21.108 21.108v0zM807.533 155.764c-23.272 0-42.216-18.935-42.216-42.216 0-23.272 18.944-42.216 42.216-42.216s42.216 18.944 42.216 42.216c0 23.284-18.944 42.216-42.216 42.216zM300.912 155.764c-23.272 0-42.216-18.935-42.216-42.216 0-23.272 18.944-42.216 42.216-42.216s42.216 18.944 42.216 42.216c0 23.284-18.944 42.216-42.216 42.216zM888.381 662.376h-630.901l47.842-358.85h526.391l56.667 358.85z" />
<glyph unicode="&#xe949;" glyph-name="facets" d="M170.668 767.999c43.482 0 78.769-35.29 78.769-78.769s-35.29-78.769-78.769-78.769-78.769 35.29-78.769 78.769 35.29 78.769 78.769 78.769zM170.668 715.487c-14.494 0-26.256-11.762-26.256-26.256s11.762-26.256 26.256-26.256 26.256 11.762 26.256 26.256-11.762 26.256-26.256 26.256zM301.949 650.16l0.106 78.453 630.049-0.261-0.106-78.508zM170.668 242.873c43.482 0 78.769-35.29 78.769-78.769s-35.29-78.769-78.769-78.769-78.769 35.29-78.769 78.769 35.29 78.769 78.769 78.769zM170.668 190.36c-14.494 0-26.256-11.762-26.256-26.256s11.762-26.256 26.256-26.256 26.256 11.762 26.256 26.256-11.762 26.256-26.256 26.256zM301.949 125.034l0.106 78.453 630.049-0.261-0.106-78.508zM170.668 505.436c43.482 0 78.769-35.29 78.769-78.769s-35.29-78.769-78.769-78.769-78.769 35.29-78.769 78.769 35.29 78.769 78.769 78.769zM170.668 452.923c-14.494 0-26.256-11.762-26.256-26.256s11.762-26.256 26.256-26.256 26.256 11.762 26.256 26.256-11.762 26.256-26.256 26.256zM301.949 387.597l0.106 78.453 630.049-0.261-0.106-78.508z" />
<glyph unicode="&#xe94a;" glyph-name="rankingactions" d="M538.447 737.279c175.121 0 317.359-143.711 320.577-322.128l0.039-6.205v-303.166l37.499 34.552 41.996-38.779-107.648-99.271-107.608 99.271 41.996 38.779 37.499-34.591v293.86h0.505v9.384c0 146.271-112.339 265.474-253.142 271.756l-5.893 0.193-5.816 0.077c-60.183 0-117.653-20.669-164.38-58.671l-5.545-4.654-21.329-18.341-35.909 43.044 21.095 18.148c57.741 49.635 130.178 76.741 206.067 76.741zM85.443 753.915l107.648 99.311 107.569-99.311-41.996-38.779-37.499 34.591v-293.86h-0.543v-9.384c0-146.271 112.378-265.435 253.219-271.756l5.855-0.193 5.816-0.077c60.183 0 117.653 20.669 164.38 58.671l5.545 4.654 21.329 18.341 35.909-43.044-21.095-18.148c-57.741-49.635-130.178-76.741-206.067-76.741-175.121 0-317.359 143.749-320.577 322.128l-0.039 6.205v303.243l-37.499-34.629-41.996 38.779zM532.319 325.844c28.968 0 51.070 5.157 66.387 15.511s22.957 25.012 22.957 44.051c0 13.030-3.49 24.159-10.547 33.349-7.019 9.19-16.752 15.977-29.161 20.319 9.306 4.77 16.481 11.245 21.561 19.389 5.041 8.144 7.601 17.45 7.601 27.765 0 17.373-7.251 31.178-21.715 41.414s-35.559 15.356-63.286 15.356h-111.059v-217.157h117.264zM518.050 456.758h-42.191v41.88h42.191c20.669 0 31.023-6.941 31.023-20.785 0-14.076-10.354-21.095-31.023-21.095zM527.356 370.206h-51.497v44.051h51.497c21.522 0 32.263-7.369 32.263-22.027 0-14.697-10.741-22.027-32.263-22.027z" />
<glyph unicode="&#xe94b;" glyph-name="discoverydomain" d="M512.122 853.334l14.166-12.58c131.4-116.69 194.937-258.84 173.684-421.776 94.419-29.26 150.639-128.251 126.396-225.983l-47.873-192.995-168.709 127.526-2.334-6.724-74.119 0.008v-78.144h-42.667v78.144l-74.665-0.008-2.212 6.403-168.285-127.205-47.873 192.995c-24.237 97.708 31.95 196.675 126.328 225.962-21.058 162.983 42.583 305.096 173.997 421.797l14.166 12.58zM692.998 378.359c-2.821-13.286-6.192-26.701-10.121-40.245l-59.069-170.189 130.203-98.42 33.086 133.385c18.571 74.866-23.106 150.674-94.099 175.469zM330.885 378.318c-70.921-24.837-112.542-100.603-93.982-175.428l33.086-133.385 129.831 98.139-58.857 170.38c-3.916 13.561-7.272 26.993-10.079 40.295zM512.122 795.758c-129.983-125.016-180.736-270.756-130.166-445.9l66.136-186.39 42.575 0.008v92.523h42.667v-92.523l42.072-0.008 66.495 186.533c50.778 175.026 0.157 320.772-129.779 445.757zM512 640c58.91 0 106.667-47.756 106.667-106.667s-47.756-106.667-106.667-106.667c-58.91 0-106.667 47.756-106.667 106.667s47.756 106.667 106.667 106.667zM512 597.334c-35.346 0-64-28.654-64-64s28.654-64 64-64c35.346 0 64 28.654 64 64s-28.654 64-64 64z" />
<glyph unicode="&#xe94c;" glyph-name="navigationdomain" d="M511.476 853.333c5.475 0.011 10.957-0.082 16.443-0.282l2.871-0.128c2.195-0.081 4.402-0.194 6.608-0.324 32.711-1.924 65.45-7.646 97.568-17.34l2.519-0.802c0.192-0.059 0.384-0.119 0.577-0.178 18.632-5.748 37.029-12.863 55.080-21.353l2.897-1.377 3.782-1.835c0.921-0.451 1.844-0.909 2.767-1.371 1.434-0.72 2.863-1.445 4.288-2.179l5.707-2.985 5.676-3.081 0.755-0.425-0.377 0.218 3.149-1.764c1.173-0.663 2.345-1.332 3.514-2.007l1.508-0.88 16.1-9.293-0.222-0.415c38.766-24.877 72.237-55.114 99.999-89.168l0.393 0.283 12.069-16.344 3.951-5.448 0.056-0.068 1.612-2.273 2.439-3.503c46.635-67.628 72.056-146.159 75.146-225.894 0.048-1.535 0.1-3.071 0.144-4.606 0.043-1.22 0.072-2.443 0.096-3.665l0.014-1.059c0.128-7.239 0.071-14.491-0.172-21.746l-0.102-2.484c-0.015-0.376-0.031-0.752-0.047-1.129-2.283-54.726-15.179-109.678-39.5-161.778-0.487-1.054-0.976-2.091-1.469-3.126l-1.627-3.364c-0.844-1.751-1.703-3.485-2.575-5.215-0.451-0.871-0.891-1.739-1.336-2.607-3.256-6.379-6.699-12.707-10.317-18.973-77.672-134.53-217.556-210.75-362.332-213.303l-7.251-0.066c-61.139-0.039-122.979 13.079-181.217 40.508-3.291 1.551-6.573 3.148-9.843 4.791-7.429 3.731-14.807 7.708-22.111 11.926-39.089 22.568-73.255 50.389-102.122 82.056-1.833 2.011-3.638 4.031-5.422 6.064-3.977 4.535-7.855 9.153-11.625 13.841l-4.537 5.742c-61.299 78.984-92.741 177.203-89.425 276.368 2.265 67.732 20.74 135.898 56.986 198.679l10.159 17.596 0.417-0.244c24.88 38.775 55.121 72.253 89.181 100.020l-0.299 0.393 16.886 12.478 1.901 1.372 1.491 1.081-2.816-2.048 7.264 5.221c64.714 45.419 139.637 71.248 216.149 76.489 0.214-0.009 0.42 0.005 0.627 0.019 2.181 0.169 4.371 0.299 6.563 0.412l1.4 0.053c1.667 0.097 3.324 0.167 4.983 0.228 1.214 0.033 2.431 0.073 3.648 0.108 3.784 0.116 7.574 0.172 11.365 0.177zM732.24 646.907l-128.473-312.007-312.007-128.473 128.473 312.007 312.007 128.473zM653.798 568.465l-200.886-82.71-82.696-200.87 200.856 82.71 82.726 200.87zM527.085 441.752c8.331-8.331 8.331-21.839 0-30.171s-21.839-8.331-30.171 0c-8.331 8.331-8.331 21.839 0 30.171s21.839 8.331 30.171 0zM533.333 746.667h-42.667l-0.006 65.414c-3.375-0.191-6.745-0.424-10.111-0.702-121.897-10.075-237.013-77.786-302.801-191.73-23.284-40.328-38.463-83.112-46.042-126.465-2.625-15.020-4.339-30.108-5.161-45.186l86.786 0.004v-42.667l-86.746-0.009c3.808-67.625 25.352-133.53 62.699-190.519 4.771-7.281 9.801-14.416 15.084-21.391 21.7-28.643 47.673-54.571 77.648-76.75 11.731-8.679 24.069-16.782 37.004-24.251 3.312-1.912 6.64-3.769 9.984-5.572 11.831-6.379 23.848-12.075 36.014-17.103l6.711-2.699c38.734-15.164 78.869-23.642 118.932-25.828l0.003 65.454h42.667l-0.017-65.416c125.623 7.065 245.327 75.336 312.935 192.439 4.784 8.287 9.226 16.677 13.331 25.154l0.782 1.612 0.628 1.346 0.141 0.271 0.179 0.413 1.536 3.328 0.896 1.963 0.222 0.441 0.591 1.309 0.532 1.215 1.003 2.304 1.737 4.012c0.756 1.792 1.498 3.588 2.225 5.386 15.955 39.544 25.014 80.882 27.361 122.352l0.016 0.538h-65.429v42.667l65.416-0.012c-3.835 68.2-25.709 134.656-63.642 191.98l-1.561 2.336-0.931 1.404-0.634 0.911c-1.608 2.354-3.243 4.693-4.906 7.015-1.084 1.531-2.18 3.036-3.287 4.535l-1.046 1.395c-30.442 40.838-69.517 76.283-116.428 103.368l-7.002 3.94c-1.028 0.566-2.057 1.126-3.087 1.681l-3.858 2.051-2.308 1.211-1.563 0.793-3.273 1.651-3.335 1.651-2.983 1.427-1.127 0.533-2.78 1.304-0.555 0.256-0.085 0.043-0.492 0.216-1.727 0.786-0.384 0.171-3.329 1.491-5.871 2.517c2.469-1.037 4.931-2.101 7.386-3.193l-2.218 0.977-2.991 1.302c-1.233 0.527-2.467 1.048-3.703 1.562l1.525-0.648c-40.879 17.171-83.763 26.897-126.796 29.394l-1.113 0.091 0.021-65.472z" />
<glyph unicode="&#xe94d;" glyph-name="searchdomain" d="M875.761 790.428c30.588 0 55.591-23.912 57.339-54.062l0.097-3.374v-536.069c0-30.588-23.912-55.591-54.062-57.339l-3.374-0.097h-344.616v-57.436h114.872c10.574 0 19.145-8.571 19.145-19.145 0-9.818-7.392-17.911-16.913-19.016l-2.232-0.13h-268.035c-10.574 0-19.145 8.571-19.145 19.145 0 9.818 7.392 17.911 16.913 19.016l2.232 0.13h114.872v57.436h-344.616c-30.588 0-55.591 23.912-57.339 54.062l-0.097 3.374v536.069c0 30.588 23.912 55.591 54.062 57.339l3.374 0.097h727.521zM875.761 752.138h-727.521c-9.818 0-17.911-7.392-19.016-16.913l-0.13-2.232v-536.069c0-9.818 7.392-17.911 16.913-19.016l2.232-0.13h727.521c9.818 0 17.911 7.392 19.016 16.913l0.13 2.232v536.069c0 10.574-8.571 19.145-19.145 19.145zM493.85 694.702c106.286 0 192.449-86.161 192.449-192.449 0-46.246-16.313-88.682-43.496-121.869l131.626-131.631-27.076-27.076-131.631 131.626c-33.187-27.185-75.623-43.496-121.869-43.496-106.286 0-192.449 86.161-192.449 192.449s86.161 192.449 192.449 192.449zM493.85 656.411c-85.139 0-154.158-69.019-154.158-154.158s69.019-154.158 154.158-154.158c85.139 0 154.158 69.019 154.158 154.158s-69.019 154.158-154.158 154.158z" />
<glyph unicode="&#xe94e;" glyph-name="explain" d="M192.002 516.791v21.868c0 35.346 28.647 64.002 63.995 64.002h101.874c9.658 27.117 30.971 48.469 58.13 58.13v21.868c0 35.346 28.656 64.002 64.002 64.002h229.873c13.248 37.191 48.376 64.002 90.124 64.002 53.002 0 96.002-42.997 96.002-96.002 0-53.031-42.997-96.002-96.002-96.002-41.752 0-76.907 26.811-90.124 64.002h-229.873v-21.868c27.117-9.658 48.469-30.999 58.13-58.13h53.866c35.346 0 64.002-28.656 64.002-64.002v-79.998h53.876c13.248 37.181 48.376 63.995 90.124 63.995 53.002 0 96.002-42.997 96.002-96.002 0-53.020-42.997-96.002-96.002-96.002-41.752 0-76.907 26.775-90.124 63.995h-53.876c-35.346 0-64.002 28.665-64.002 64.002v79.998h-53.866c-13.222-37.211-48.376-63.995-90.137-63.995-41.752 0-76.907 26.784-90.124 64.002h-101.874v-21.868c37.191-13.258 64.002-48.412 64.002-90.137 0-41.76-26.811-76.916-64.002-90.137v-21.861h101.874c13.222 37.181 48.376 63.995 90.124 63.995 53.002 0 96.002-42.997 96.002-96.002 0-41.78-26.811-76.916-63.995-90.137v-21.861h229.873c13.248 37.181 48.376 63.995 90.124 63.995 53.002 0 96.002-42.997 96.002-96.002 0-53.058-42.997-96.002-96.002-96.002-41.752 0-76.907 26.784-90.124 64.002h-229.873c-35.346 0-64.002 28.647-64.002 64.002v21.861c-27.157 9.658-48.469 30.98-58.13 58.13h-101.874c-35.346 0-63.995 28.665-63.995 64.014v21.861c-37.218 13.222-64.002 48.376-64.002 90.137 0 41.721 26.784 76.876 64.002 90.124zM800 682.673c17.627 0 31.997 14.38 31.997 31.997s-14.373 31.997-31.997 31.997c-17.627 0-31.997-14.38-31.997-31.997s14.373-31.997 31.997-31.997zM800 394.66c17.627 0 31.997 14.38 31.997 32.007s-14.373 31.997-31.997 31.997c-17.627 0-31.997-14.38-31.997-31.997s14.373-32.007 31.997-32.007zM447.998 538.673c17.666 0 32.007 14.38 32.007 31.997s-14.341 31.997-32.007 31.997c-17.653 0-31.997-14.373-31.997-31.997s14.341-31.997 31.997-31.997zM800 106.669c17.627 0 31.997 14.341 31.997 31.997 0 17.666-14.373 32.007-31.997 32.007s-31.997-14.341-31.997-32.007c0-17.653 14.373-31.997 31.997-31.997zM447.998 250.66c17.666 0 32.007 14.341 32.007 32.007s-14.341 32.007-32.007 32.007c-17.653 0-31.997-14.341-31.997-32.007s14.341-32.007 31.997-32.007zM224 394.66c17.653 0 31.997 14.38 31.997 32.007s-14.341 31.997-31.997 31.997c-17.653 0-31.997-14.38-31.997-31.997s14.341-32.007 31.997-32.007z" />
<glyph unicode="&#xe94f;" glyph-name="audit" d="M529.802 831.454c-128.972 0-246.377-67.148-312.122-174.813-12.657-20.728-23.205-42.681-31.461-65.556-7.589-21.028 3.305-44.227 24.334-51.816s44.227 3.305 51.816 24.334c6.4 17.732 14.581 34.759 24.405 50.847 51.172 83.799 142.526 136.048 243.028 136.048 156.894 0 284.023-126.412 284.023-282.194 0-155.797-127.103-282.194-284.023-282.194-69.644 0-135.288 24.958-186.614 69.466-4.721 4.116-9.182 8.243-13.422 12.426-17.361 17.112-32.449 36.375-44.855 57.293-8.071 13.607-14.978 27.867-20.642 42.641-8.001 20.875-31.411 31.31-52.286 23.308s-31.31-31.411-23.308-52.286c7.304-19.053 16.208-37.435 26.605-54.963 15.96-26.908 35.352-51.666 57.646-73.642 5.436-5.361 11.109-10.61 17.14-15.868 66-57.233 150.428-89.332 239.737-89.332 201.531 0 364.98 162.542 364.98 363.151 0 200.596-163.476 363.151-364.98 363.151zM800.166 256.962c-15.498 16.111-41.123 16.608-57.234 1.11-15.264-14.682-16.513-38.453-3.424-54.615l2.314-2.62 140.734-146.302c15.498-16.111 41.123-16.608 57.234-1.11 15.264 14.682 16.513 38.453 3.424 54.615l-2.314 2.62-140.734 146.302zM563.911 613.238c-18.23 43.343-79.663 39.95-94.025-3.363l-0.227-0.831-61.143-178.774-33.768 86.525c-14.221 40.776-69.574 44.598-89.632 7.702l-1.631-3.263-14.783-32.068-161.937-1.784c-21.339-0.236-38.637-16.941-39.951-37.901l-0.078-3.022c0.236-21.339 16.941-38.637 37.901-39.951l3.022-0.078 170.006 1.881c16.577 0 32.162 6.133 44.156 16.654l1.385 1.297 38.71-99.254c16.012-46.060 80.15-45.56 95.944-2.664l1.118 3.383 61.602 180.038 59.191-140.272c15.842-37.841 65.787-41.824 88.435-10.998l1.619 2.349 41.794 46.854 36.33-1.467c21.322-0.857 39.454 14.94 41.839 35.807l0.232 3.014c0.857 21.322-14.94 39.454-35.807 41.839l-3.014 0.232-74.518 2.995-40.699-45.606-72.075 170.724z" />
<glyph unicode="&#xe950;" glyph-name="histogram" d="M213.333 512v-469.333h-85.333v469.333h85.333zM384 810.667v-768h-85.333v768h85.333zM554.667 640v-597.333h-85.333v597.333h85.333zM896 597.334v-554.667h-85.333v554.667h85.333zM725.333 341.334v-298.667h-85.333v298.667h85.333z" />
<glyph unicode="&#xe951;" glyph-name="scales" d="M524.631 325.614l88.42-151.578h-176.843l88.42 151.578zM885.76 451.929l5.188-32.082-752.71-144.76-5.185 32.079 752.708 144.764zM196.21 552.983c48.831 0 88.42-39.587 88.42-88.42s-39.589-88.42-88.42-88.42c-48.833 0-88.42 39.587-88.42 88.42s39.587 88.42 88.42 88.42zM802.526 654.035c48.831 0 88.42-39.587 88.42-88.42s-39.589-88.42-88.42-88.42c-48.833 0-88.42 39.587-88.42 88.42s39.587 88.42 88.42 88.42z" />
<glyph unicode="&#xe952;" glyph-name="tooling" horiz-adv-x="1195" d="M419.283 243.015v412.358l139.658-145.359 55.125 57.375-233.739 243.279-233.739-243.279 55.125-57.375 139.658 145.359v-412.358zM853.369 610.319v-412.358l139.658 145.359 55.125-57.375-233.739-243.279-233.739 243.279 55.125 57.375 139.658-145.359v412.358z" />
<glyph unicode="&#xe953;" glyph-name="abacus" horiz-adv-x="956" d="M240.163 808.743l-0.017-118.85 237.751-0.017v19.81c0 32.826 26.61 59.435 59.435 59.435s59.435-26.61 59.435-59.435l-0.017-19.793h118.878l0.009 118.85h118.867v-752.828h-118.867l-0.009 118.891h-39.635l0.021-19.834c0-32.826-26.61-59.435-59.435-59.435s-59.435 26.61-59.435 59.435v19.81l-316.997 0.024 0.017-118.891h-118.867v752.828h118.867zM200.543 769.119h-39.621v-673.584h39.621v435.847h39.621l-0.017-79.247h79.263v19.81c0 32.826 26.61 59.435 59.435 59.435s59.435-26.61 59.435-59.435l-0.009-19.81h277.361v198.12h-118.878l0.017-19.818c0-32.826-26.61-59.435-59.435-59.435s-59.435 26.61-59.435 59.435v19.81l-237.751 0.008 0.017-79.25h-39.621v198.113zM755.257 334.486h-39.621l-0.009 78.043h-277.361l0.009-19.823c0-32.826-26.61-59.435-59.435-59.435s-59.435 26.61-59.435 59.435v19.81l-79.263 0.013v-198.12l316.997-0.009v19.81c0 32.826 26.61 59.435 59.435 59.435s59.435-26.61 59.435-59.435l-0.021-19.805h39.635l0.009 79.235h39.621v-198.113h39.621v673.584h-39.621v-434.631zM616.58 254.025c-10.942 0-19.81-8.868-19.81-19.81v-79.247c0-10.942 8.868-19.81 19.81-19.81s19.81 8.868 19.81 19.81v79.247c0 10.942-8.868 19.81-19.81 19.81zM378.846 491.763c-10.942 0-19.81-8.868-19.81-19.81v-79.247c0-10.942 8.868-19.81 19.81-19.81s19.81 8.868 19.81 19.81v79.247c0 10.942-8.868 19.81-19.81 19.81zM537.333 729.496c-10.942 0-19.81-8.868-19.81-19.81v-79.247c0-10.942 8.868-19.81 19.81-19.81s19.81 8.868 19.81 19.81v79.247c0 10.942-8.868 19.81-19.81 19.81z" />
<glyph unicode="&#xe954;" glyph-name="book" horiz-adv-x="1182" d="M1006.264 676.613c-3.76 3.75-8.855 5.86-14.166 5.86-0.021 0-0.039 0-0.056 0l-60.133-0.163v80.42c0 11.079-8.985 20.063-20.063 20.063h-25.080c-150.723 0-238.978-21.892-295.933-74.705-56.958 52.811-145.213 74.705-295.933 74.705h-25.080c-11.079 0-20.063-8.985-20.063-20.063v-80.42l-60.133 0.163c-5.432 0.077-10.446-2.091-14.22-5.86-3.777-3.763-5.897-8.88-5.897-14.203v-516.631c0-11.079 8.985-20.063 20.063-20.063h25.080c269.993 0 327.713-60.94 333.404-67.888 3.813-4.649 9.507-7.352 15.52-7.352h54.52c6.013 0 11.711 2.703 15.52 7.352 5.698 6.943 63.417 67.888 333.411 67.888h25.080c11.079 0 20.063 8.985 20.063 20.063v516.631c0 5.329-2.12 10.444-5.897 14.203zM209.633 165.843v476.448l40.118-0.112v-476.689c-11.325 0.23-23.008 0.352-35.101 0.352h-5.017zM289.873 164.178v497.809c0 0.067 0.009 0.131 0.009 0.197v80.475h5.017c146.659 0 227.564-20.708 275.87-71.141v-579.541c-26.595 24.418-97.472 63.679-280.894 72.199zM610.899 91.98v579.541c48.307 50.435 129.211 71.141 275.87 71.141h5.017v-578.485c-183.418-8.522-254.29-47.786-280.887-72.199zM972.038 165.843h-5.017c-12.094 0-23.78-0.124-35.109-0.352v476.689l40.126 0.112v-476.448z" />
<glyph unicode="&#xe955;" glyph-name="sliders" d="M636.12 274.938c15.231 0 27.58-12.342 27.58-27.58v0-62.055h199.96c15.231 0 27.58-12.342 27.58-27.58 0-15.231-12.351-27.58-27.58-27.58v0h-199.96v-62.055c0-15.231-12.351-27.58-27.58-27.58s-27.58 12.351-27.58 27.58v0 62.055h-448.19c-15.231 0-27.58 12.351-27.58 27.58 0 15.238 12.351 27.58 27.58 27.58v0h448.19v62.055c0 15.238 12.351 27.58 27.58 27.58zM382.723 543.855c15.234 0 27.58-12.346 27.58-27.58v0-62.055h453.358c15.231 0 27.58-12.346 27.58-27.58s-12.351-27.584-27.58-27.584v0h-453.358v-62.055c0-15.231-12.346-27.58-27.58-27.58s-27.58 12.351-27.58 27.58v0 62.055h-194.794c-15.231 0-27.58 12.351-27.58 27.584s12.351 27.58 27.58 27.58v0h194.794v62.055c0 15.234 12.346 27.58 27.58 27.58zM722.312 812.767c15.231 0 27.58-12.346 27.58-27.58v0-62.055h113.77c15.231 0 27.58-12.346 27.58-27.58s-12.351-27.58-27.58-27.58v0h-113.77v-62.055c0-15.234-12.351-27.58-27.58-27.58s-27.58 12.346-27.58 27.58v0 62.055h-534.38c-15.231 0-27.58 12.346-27.58 27.58s12.351 27.58 27.58 27.58v0h534.38v62.055c0 15.234 12.351 27.58 27.58 27.58z" />
<glyph unicode="&#xe956;" glyph-name="pen" d="M218.666 245.433l60.464-34.909 0.364 0.628 0.351 0.638-61.179 33.643zM219.637 247.155v0zM194.23 203.105l57.552-39.526 1.547 2.253 1.366 2.365-60.464 34.909zM190.659 196.923l60.464-34.909 1.371 2.374 1.18 2.472-63.016 30.064zM187.103 190.761l-60.464 34.909-34.91-60.463 60.465-34.909 34.909 60.463zM188.083 190.197l66.97-19.74 15.54 52.722-47.601 27.48-34.909-60.463zM256-61.474v0zM427.473 37.524v0zM438.092 45.851l34.907 60.467-47.599 27.48-37.888-39.82 50.58-48.128zM439.074 45.288l-34.909-60.467 60.464-34.909 34.911 60.467-60.466 34.909zM442.637 51.459l-57.553 39.526-1.546-2.253-1.366-2.365 60.464-34.909zM446.195 57.617l-60.464 34.909-1.361-2.355-1.173-2.458 62.998-30.096zM707.156 509.621l60.467-34.909 34.942 60.523-60.556 34.884-34.853-60.498zM707.142 509.631l-60.467 34.909-34.942-60.523 60.556-34.883 34.853 60.497zM843.971 746.631v0zM809.896 873.795v0zM719.165 926.18v0zM592.002 892.106v0zM279.845 211.79c0.082 0.149 0.168 0.303 0.256 0.451l-120.928 69.823c-0.573-0.991-1.135-1.992-1.685-2.993l122.358-67.281zM254.695 168.195l24.435 42.328-120.928 69.818-24.436-42.328 120.929-69.818zM253.675 166.86c-0.557-1.164-1.194-2.262-1.893-3.281l-115.103 79.057c-3.377-4.92-6.408-10.147-9.035-15.653l126.031-60.123zM247.567 155.852l3.557 6.163-120.929 69.818-3.557-6.163 120.928-69.818zM222.992 250.66l-0.98 0.568-69.817-120.93 0.98-0.568 69.817 120.93zM256 176.834c0-1.96-0.285-4.133-0.947-6.377l-133.939 39.48c-3.126-10.608-4.75-21.732-4.75-33.103h139.636zM256-21.165v198h-139.636v-198h139.636zM221.091-1.011c15.515 8.96 34.909-2.239 34.909-20.154h-139.636c0-89.577 96.97-145.562 174.545-100.771l-69.818 120.925zM392.564 97.991l-171.473-99.002 69.818-120.925 171.473 98.998-69.818 120.93zM387.513 93.979c1.613 1.699 3.354 3.030 5.052 4.012l69.818-120.93c9.849 5.688 18.67 12.651 26.289 20.662l-101.159 96.256zM473.982 105.75l-0.982 0.568-69.816-120.93 0.982-0.568 69.817 120.93zM382.173 86.369l-3.564-6.172 120.931-69.818 3.561 6.172-120.928 69.818zM383.196 87.714c0.53 1.112 1.159 2.206 1.888 3.272l115.107-79.053c3.44 5.008 6.437 10.226 9.002 15.593l-125.997 60.188zM646.693 544.53l-260.963-452.004 120.926-69.818 260.966 452.004-120.93 69.818zM672.289 449.134v0zM783.509 781.54l-136.834-236.999 120.93-69.818 136.83 236.999-120.925 69.818zM774.986 813.331c11.134-6.427 14.946-20.66 8.522-31.791l120.925-69.818c44.986 77.918 18.292 177.552-59.629 222.538l-69.818-120.929zM684.255 865.715l90.731-52.385 69.818 120.929-90.731 52.384-69.818-120.928zM652.465 857.197c6.428 11.131 20.662 14.945 31.791 8.518l69.818 120.928c-77.917 44.986-177.552 18.29-222.538-59.629l120.93-69.818zM280.101 212.246l372.364 644.951-120.93 69.818-372.363-644.951 120.929-69.818z" />
<glyph unicode="&#xe957;" glyph-name="balloon" horiz-adv-x="910" d="M643.768 61.172c30.047 0 57.889 6.039 83.515 18.118s47.871 29.606 66.726 52.586v0l-31.814 38.003c-32.406-37.71-71.585-56.56-117.54-56.56-44.187 0-88.966 23.864-134.333 71.585 50.082 9.425 94.418 28.573 133.009 57.445s68.637 64.959 90.147 108.264c21.503 43.306 32.258 90.883 32.258 142.727 0 59.507-14.14 113.27-42.419 161.288s-67.020 85.58-116.215 112.68c-49.195 27.103-104.431 40.652-165.708 40.652s-116.805-13.696-166.591-41.095c-49.787-27.399-88.673-64.959-116.658-112.68s-41.981-101.338-41.981-160.845c0-58.328 13.553-111.062 40.652-158.197s64.515-84.547 112.237-112.237c47.721-27.692 101.338-42.419 160.845-44.187 40.652-42.419 77.331-72.616 110.032-90.586s67.313-26.955 103.843-26.955zM441.385 237.043c-48.902 0-93.238 11.193-133.009 33.582s-70.998 53.025-93.681 91.914c-22.683 38.884-34.025 82.484-34.025 130.798s11.342 91.914 34.025 130.798c22.683 38.884 53.911 69.524 93.681 91.914s84.107 33.582 133.009 33.582c48.902 0 93.089-11.193 132.566-33.582s70.405-53.025 92.795-91.914c22.39-38.884 33.582-82.484 33.582-130.798s-11.193-91.914-33.582-130.798c-22.39-38.884-53.322-69.524-92.795-91.914s-83.664-33.582-132.566-33.582z" />
<glyph unicode="&#xe958;" glyph-name="help" horiz-adv-x="585" d="M347.409 152.381v-109.716h-109.716v109.716h109.716zM292.553 810.669c121.236 0 219.43-98.196 219.43-219.43 0-48.274-19.749-92.16-51.019-123.429l-49.371-50.467c-39.499-40.044-64.181-72.962-64.181-155.244h-109.716v27.427c0 60.345 24.687 115.2 64.181 155.244l68.023 69.12c20.295 19.749 32.366 47.177 32.366 77.349 0 60.345-49.371 109.716-109.716 109.716s-109.716-49.371-109.716-109.716h-109.716c0 121.236 98.196 219.43 219.43 219.43z" />
<glyph unicode="&#xe959;" glyph-name="heart" horiz-adv-x="1097" d="M548.556 731.016l1.683 1.74c92.498 95.754 242.998 95.754 335.499 0 90.404-93.585 92.284-244.572 5.65-340.548l-5.65-6.049-318.060-329.258c-5.131-5.258-12.001-8.137-19.123-8.137-5.934 0-11.693 1.996-16.43 5.722l-2.716 2.438-318.033 329.229c-92.325 95.577-92.325 251.023 0 346.601 90.651 93.841 237.004 95.719 329.881 5.63l7.303-7.37zM379.143 749.367c-48.268 0-94.703-19.466-129.475-55.462-69.838-72.296-71.539-188.861-5.111-263.314l5.111-5.502 298.918-309.442 298.937 309.442c69.838 72.296 71.539 188.861 5.111 263.314l-5.111 5.502c-69.71 72.161-182.076 73.879-253.815 5.154l-5.176-5.154-20.789-21.522c-9.716-10.057-25.123-10.832-35.713-2.321l-2.542 2.321-20.787 21.515c-34.855 36.005-81.3 55.469-129.559 55.469z" />
<glyph unicode="&#xe95a;" glyph-name="icons" d="M232.727 892.122c-50.968 0-93.091-42.122-93.091-93.091v-744.727c0-50.968 42.122-93.091 93.091-93.091h558.545c50.968 0 93.091 42.122 93.091 93.091v744.727c0 50.968-42.122 93.091-93.091 93.091zM232.727 822.303h558.545c13.497 0 23.273-9.776 23.273-23.273v-744.727c0-13.497-9.776-23.273-23.273-23.273h-558.545c-13.497 0-23.273 9.776-23.273 23.273v744.727c0 13.497 9.776 23.273 23.273 23.273zM354.263 645.172h315.475c7.879 0 14.222-6.343 14.222-14.222s-6.343-14.222-14.222-14.222h-315.475c-7.879 0-14.222 6.343-14.222 14.222s6.343 14.222 14.222 14.222zM354.273 659.394c-15.512 0-28.455-12.942-28.455-28.455s12.942-28.455 28.455-28.455h315.455c15.512 0 28.455 12.942 28.455 28.455s-12.942 28.455-28.455 28.455zM354.263 448.65h315.475c7.879 0 14.222-6.343 14.222-14.222s-6.343-14.222-14.222-14.222h-315.475c-7.879 0-14.222 6.343-14.222 14.222s6.343 14.222 14.222 14.222zM354.273 462.849c-15.512 0-28.455-12.942-28.455-28.455s12.942-28.455 28.455-28.455h315.455c15.512 0 28.455 12.942 28.455 28.455s-12.942 28.455-28.455 28.455zM354.263 252.126h315.475c7.879 0 14.222-6.343 14.222-14.222s-6.343-14.222-14.222-14.222h-315.475c-7.879 0-14.222 6.343-14.222 14.222s6.343 14.222 14.222 14.222zM354.273 266.303c-15.512 0-28.455-12.851-28.455-28.364s12.942-28.455 28.455-28.455h315.455c15.512 0 28.455 12.942 28.455 28.455s-12.942 28.364-28.455 28.364z" />
<glyph unicode="&#x1f322;" glyph-name="download" d="M196.784 133.655h630.432v-90.99h-630.432v90.99zM827.216 539.861l-315.216-315.216-315.216 315.216h179.812v270.802h270.802v-270.802h179.812z" />
<glyph unicode="users" glyph-name="users" d="M529.778 737.777c85.092 0 154.073-68.981 154.073-154.073 0-36.127-12.515-70.238-34.612-97.322l-3.772-4.447-3.494-3.818 0.527-0.177c87.817-28.327 140.943-109.633 144.827-213.736l0.172-6.15 0.057-6.202v-82.963c0-38.083-29.937-69.174-67.562-71.024l-3.548-0.086h-373.333c-38.083 0-69.174 29.937-71.024 67.562l-0.086 3.548v82.963c0 107.918 51.784 193.371 139.929 224.36l5.633 1.904-3.476 3.818c-21.983 24.956-35.475 56.499-37.965 90.341l-0.324 5.994-0.095 5.432c0 85.092 68.981 154.073 154.073 154.073zM571.258 438.519h-82.963c-103.093 0-165.925-83.572-165.925-186.667v-82.963c0-11.454 9.286-20.74 20.74-20.74h373.333c11.454 0 20.74 9.286 20.74 20.74v82.963c0 103.093-62.832 186.667-165.925 186.667zM529.778 687.407c-57.275 0-103.702-46.431-103.702-103.702s46.431-103.702 103.702-103.702c57.275 0 103.702 46.431 103.702 103.702s-46.431 103.702-103.702 103.702zM729.777 693.333c69.219 0 125.332-55.717 125.332-124.445 0-36.043-15.432-68.508-40.095-91.235 71.707-22.658 123.652-89.318 123.652-168.024v-62.223c0-28.637-23.38-51.851-52.222-51.851h-71.428v41.482h71.428c5.767 0 10.445 4.642 10.445 10.371v62.223c0 74.455-60.789 134.814-135.777 134.814h-10.445c-11.537 0-20.888 9.286-20.888 20.74 0 11.441 8.15 21.285 19.454 23.499 4.769 0.936 8.578 1.965 11.427 3.091 30.862 12.195 52.673 42.125 52.673 77.112 0 45.818-37.409 82.963-83.557 82.963-10.162 0-19.901-1.802-28.912-5.101-3.876 13.461-9.085 26.361-15.48 38.551 13.798 5.19 28.762 8.032 44.392 8.032zM340.911 646.753c-9.008 3.299-18.748 5.101-28.912 5.101-46.147 0-83.557-37.145-83.557-82.963 0-35.222 22.104-65.317 53.291-77.354 2.773-1.072 6.395-2.044 10.861-2.917 11.267-2.207 19.379-12.030 19.351-23.433-0.029-11.464-9.397-20.74-20.941-20.74h-10.341c-74.989 0-135.777-60.358-135.777-134.814v-62.223c0-5.727 4.675-10.371 10.445-10.371h74.419v-41.482h-74.419c-28.841 0-52.222 23.214-52.222 51.851v62.223c0 78.706 51.944 145.366 123.652 168.024-24.663 22.727-40.095 55.192-40.095 91.235 0 68.729 56.113 124.445 125.332 124.445 15.631 0 30.592-2.842 44.392-8.032-6.395-12.19-11.604-25.090-15.48-38.551z" />
<glyph unicode="useradmin" glyph-name="user-admin" d="M485.375 340.266h53.319c2.665 0 4.905-1.52 6.035-3.677l0.629-1.724 4.887-34.344c5.48-2.161 10.566-4.801 15.386-7.856l7.053-4.887 33.103 12.96c2.333 0.81 4.79 0.405 6.623-1.032l1.596-1.774 26.658-44.712c1.421-2.245 1.138-5.046-0.283-7.071l-1.272-1.353-28.213-21.384c0.445-4.319 0.888-8.424 0.888-12.743l-0.194-6.263-0.694-6.263 28.213-21.384c1.954-1.727 2.914-4.285 2.309-6.678l-0.754-1.746-26.658-44.712c-1.334-2.106-3.54-3.24-5.872-3.219l-2.346 0.413-33.103 12.96c-4.593-3.457-9.479-6.528-14.597-9.152l-7.842-3.591-4.887-34.344c-0.533-2.592-2.346-4.631-4.755-5.343l-1.908-0.272h-53.319c-2.665 0-4.905 1.52-6.035 3.677l-0.629 1.724-4.887 34.344c-5.48 2.161-10.566 4.801-15.386 7.856l-7.053 4.887-33.103-12.96c-2.333-0.81-4.79-0.405-6.623 1.032l-1.596 1.774-26.658 44.712c-1.421 2.245-1.28 4.907 0.086 6.989l1.247 1.435 28.213 21.384c-0.445 4.319-0.889 8.424-0.889 12.743l0.305 6.373 0.804 6.373-28.213 21.384c-1.954 1.727-2.914 4.285-2.309 6.678l0.754 1.746 26.658 44.712c1.334 2.106 3.54 3.24 5.872 3.219l2.346-0.413 33.103-12.96c4.444 3.457 9.38 6.432 14.548 8.992l7.891 3.537 4.887 34.344c0.533 2.592 2.346 4.631 4.755 5.343l1.908 0.272h53.319zM706.4 361.867c77.217 0 228.629-41.173 237.219-122.334l0.381-7.266v-64.8l-264.651-0.033c3.558 13.817 5.451 28.305 5.451 43.232 0 56.589-27.201 106.824-69.243 138.344 33.14 8.549 65.872 12.855 90.841 12.855zM382.4 383.468c20.736 0 45.597-2.222 72.138-6.392l13.139-2.162-6.281 1.026c-42.387-12.963-77.85-41.787-99.469-79.55-56.033-3.455-114.793-20.429-153.658-38.369l-8.605-4.152 144.978-0.010c-3.553-13.805-5.441-28.277-5.441-43.189 0-14.928 1.893-29.414 5.451-43.232l-264.651 0.033v64.8c0 100.657 201.311 151.201 302.399 151.201zM512 253.868c-23.747 0-43.199-19.452-43.199-43.199s19.452-43.199 43.199-43.199c23.747 0 43.199 19.452 43.199 43.199s-19.452 43.199-43.199 43.199zM706.4 642.668c59.616 0 107.999-48.383 107.999-107.999 0-40.607-22.897-75.599-55.728-94.177-15.552-8.641-33.265-13.825-52.271-13.825s-36.719 5.184-52.271 13.825c-32.831 18.575-55.728 53.567-55.728 94.177 0 59.616 48.383 107.999 107.999 107.999zM382.4 772.267c83.375 0 151.201-67.823 151.201-151.201s-67.823-151.201-151.201-151.201c-83.375 0-151.201 67.823-151.201 151.201s67.823 151.201 151.201 151.201zM382.4 685.867c-35.857 0-64.8-28.943-64.8-64.8s28.943-64.8 64.8-64.8c35.857 0 64.8 28.943 64.8 64.8s-28.943 64.8-64.8 64.8z" />
<glyph unicode="user" glyph-name="dimension-user" d="M350 588.667c0 89.326 72.675 162 162 162s162-72.674 162-162c0-89.326-72.675-162-162-162s-162 72.674-162 162zM783.53 314.195c-41.823 41.823-91.608 72.783-145.92 91.526 58.172 40.066 96.392 107.122 96.392 182.943 0 122.409-99.588 222.002-222.002 222.002s-222.002-99.588-222.002-222.002c0-75.824 38.22-142.875 96.394-182.943-54.315-18.744-104.098-49.706-145.92-91.526-72.53-72.531-112.473-168.958-112.473-271.53h60.002c0 178.656 145.344 324 324 324s324-145.344 324-324h60.002c0 102.572-39.944 198.999-112.472 271.53z" />
<glyph unicode="tooling" glyph-name="tooling" horiz-adv-x="1195" d="M419.283 243.015v412.358l139.658-145.359 55.125 57.375-233.739 243.279-233.739-243.279 55.125-57.375 139.658 145.359v-412.358zM853.369 610.319v-412.358l139.658 145.359 55.125-57.375-233.739-243.279-233.739 243.279 55.125 57.375 139.658-145.359v412.358z" />
<glyph unicode="synonyms" glyph-name="section-synonyms" d="M532.724 346.075v-282.073h-41.448v282.073h41.448zM739.962 225.186v-80.592h-124.344v80.592h124.344zM947.2 265.481v-120.889h-82.896v120.889h82.896zM408.38 708.74v-80.592h-248.685v-402.962h248.685v-80.592h-331.58v564.148h331.58zM657.068 507.259l124.344-83.734-124.344-77.451v40.314l-373.028-0.016v80.592l373.028 0.032v40.265zM947.2 507.259v-120.889h-82.896v120.889h82.896zM532.724 789.335v-282.073h-41.448v282.073h41.448zM947.2 708.74v-80.592h-124.344v80.592h124.344zM698.516 708.74v-80.592h-82.896v80.592h82.896z" />
<glyph unicode="spiderweb" glyph-name="spiderweb" d="M520.902 816.233l228.981-74.4 141.518-194.783v-240.765l-141.518-194.783-228.981-74.4-228.981 74.4-141.518 194.783v240.765l141.518 194.783 228.981 74.4zM520.887 796.737l-217.508-70.678-134.437-185.026v-228.711l134.437-185.026 217.508-70.678 217.527 70.678 134.437 185.026v228.711l-134.437 185.026-217.527 70.678zM520.902 593.623l98.134-31.887 60.65-83.478v-103.186l-60.65-83.478-98.134-31.887-98.134 31.887-60.65 83.478v103.186l60.65 83.478 98.134 31.887zM520.887 574.127l-86.67-28.16-53.555-73.721v-91.14l53.555-73.721 86.67-28.16 86.67 28.16 53.574 73.721v91.14l-53.574 73.721-86.67 28.16zM530.55 853.335v-853.332h-18.55v853.332zM779.569 766.397l-501.576-690.361-15.009 10.904 501.576 690.361zM929.927 549.694l-811.569-263.694-5.731 17.643 811.569 263.694zM924.192 285.997l-811.569 263.694 5.731 17.643 811.569-263.694zM764.56 76.036l-501.576 690.361 15.009 10.904 501.576-690.361zM520.902 704.928l163.557-53.144 101.085-139.13v-171.974l-101.085-139.13-163.557-53.144-163.557 53.144-101.085 139.13v171.974l101.085 139.13 163.557 53.144zM520.887 685.432l-152.079-49.419-93.996-129.372v-159.927l93.996-129.372 152.079-49.419 152.097 49.419 93.996 129.372v159.927l-93.996 129.372-152.097 49.419z" />
<glyph unicode="sliders" glyph-name="sliders" d="M636.12 274.938c15.231 0 27.58-12.342 27.58-27.58v0-62.055h199.96c15.231 0 27.58-12.342 27.58-27.58 0-15.231-12.351-27.58-27.58-27.58v0h-199.96v-62.055c0-15.231-12.351-27.58-27.58-27.58s-27.58 12.351-27.58 27.58v0 62.055h-448.19c-15.231 0-27.58 12.351-27.58 27.58 0 15.238 12.351 27.58 27.58 27.58v0h448.19v62.055c0 15.238 12.351 27.58 27.58 27.58zM382.723 543.855c15.234 0 27.58-12.346 27.58-27.58v0-62.055h453.358c15.231 0 27.58-12.346 27.58-27.58s-12.351-27.584-27.58-27.584v0h-453.358v-62.055c0-15.231-12.346-27.58-27.58-27.58s-27.58 12.351-27.58 27.58v0 62.055h-194.794c-15.231 0-27.58 12.351-27.58 27.584s12.351 27.58 27.58 27.58v0h194.794v62.055c0 15.234 12.346 27.58 27.58 27.58zM722.312 812.767c15.231 0 27.58-12.346 27.58-27.58v0-62.055h113.77c15.231 0 27.58-12.346 27.58-27.58s-12.351-27.58-27.58-27.58v0h-113.77v-62.055c0-15.234-12.351-27.58-27.58-27.58s-27.58 12.346-27.58 27.58v0 62.055h-534.38c-15.231 0-27.58 12.346-27.58 27.58s12.351 27.58 27.58 27.58v0h534.38v62.055c0 15.234 12.351 27.58 27.58 27.58z" />
<glyph unicode="selectall" glyph-name="select-all" d="M127.999 725.333h85.332v85.332c-46.935 0-85.332-38.402-85.332-85.332zM127.999 383.998h85.332v85.332h-85.332v-85.332zM298.669 42.665h85.332v85.332h-85.332v-85.332zM127.999 554.668h85.332v85.332h-85.332v-85.332zM554.669 810.669h-85.332v-85.332h85.332v85.332zM810.666 810.669v-85.332h85.332c0 46.935-38.402 85.332-85.332 85.332zM213.334 42.665v85.332h-85.332c0-46.935 38.402-85.332 85.332-85.332zM127.999 213.335h85.332v85.332h-85.332v-85.332zM384 810.669h-85.332v-85.332h85.332v85.332zM469.332 42.665h85.332v85.332h-85.332v-85.332zM810.666 383.998h85.332v85.332h-85.332v-85.332zM810.666 42.665c46.935 0 85.332 38.402 85.332 85.332h-85.332v-85.332zM810.666 554.668h85.332v85.332h-85.332v-85.332zM810.666 213.335h85.332v85.332h-85.332v-85.332zM640.002 42.665h85.332v85.332h-85.332v-85.332zM640.002 725.333h85.332v85.332h-85.332v-85.332zM298.669 213.335h426.665v426.665h-426.665v-426.665zM384 554.668h256.001v-256.001h-256.001v256.001z" />
<glyph unicode="searchdomain" glyph-name="searchdomain" d="M875.761 790.428c30.588 0 55.591-23.912 57.339-54.062l0.097-3.374v-536.069c0-30.588-23.912-55.591-54.062-57.339l-3.374-0.097h-344.616v-57.436h114.872c10.574 0 19.145-8.571 19.145-19.145 0-9.818-7.392-17.911-16.913-19.016l-2.232-0.13h-268.035c-10.574 0-19.145 8.571-19.145 19.145 0 9.818 7.392 17.911 16.913 19.016l2.232 0.13h114.872v57.436h-344.616c-30.588 0-55.591 23.912-57.339 54.062l-0.097 3.374v536.069c0 30.588 23.912 55.591 54.062 57.339l3.374 0.097h727.521zM875.761 752.138h-727.521c-9.818 0-17.911-7.392-19.016-16.913l-0.13-2.232v-536.069c0-9.818 7.392-17.911 16.913-19.016l2.232-0.13h727.521c9.818 0 17.911 7.392 19.016 16.913l0.13 2.232v536.069c0 10.574-8.571 19.145-19.145 19.145zM493.85 694.702c106.286 0 192.449-86.161 192.449-192.449 0-46.246-16.313-88.682-43.496-121.869l131.626-131.631-27.076-27.076-131.631 131.626c-33.187-27.185-75.623-43.496-121.869-43.496-106.286 0-192.449 86.161-192.449 192.449s86.161 192.449 192.449 192.449zM493.85 656.411c-85.139 0-154.158-69.019-154.158-154.158s69.019-154.158 154.158-154.158c85.139 0 154.158 69.019 154.158 154.158s-69.019 154.158-154.158 154.158z" />
<glyph unicode="search" glyph-name="search" d="M661.333 341.334h-33.707l-11.947 11.52c41.813 48.64 66.987 111.787 66.987 180.48 0 153.173-124.16 277.333-277.333 277.333s-277.333-124.16-277.333-277.333 124.16-277.333 277.333-277.333c68.693 0 131.84 25.173 180.48 66.987l11.52-11.947v-33.707l213.333-212.907 63.573 63.573-212.907 213.333zM405.333 341.334c-106.24 0-192 85.76-192 192s85.76 192 192 192 192-85.76 192-192-85.76-192-192-192z" />
<glyph unicode="scales" glyph-name="scales" d="M524.631 325.614l88.42-151.578h-176.843l88.42 151.578zM885.76 451.929l5.188-32.082-752.71-144.76-5.185 32.079 752.708 144.764zM196.21 552.983c48.831 0 88.42-39.587 88.42-88.42s-39.589-88.42-88.42-88.42c-48.833 0-88.42 39.587-88.42 88.42s39.587 88.42 88.42 88.42zM802.526 654.035c48.831 0 88.42-39.587 88.42-88.42s-39.589-88.42-88.42-88.42c-48.833 0-88.42 39.587-88.42 88.42s39.587 88.42 88.42 88.42z" />
<glyph unicode="rightarrow" glyph-name="right-arrow" d="M250.88 762.88l336.213-336.213-336.213-336.213 90.453-90.453 426.667 426.667-426.667 426.667z" />
<glyph unicode="redirections" glyph-name="redirections" d="M760.975 580.531v-111.235l179.325 181.083-179.325 179.261v-110.488l-611.921-0.818 0.335-138.583 611.592 0.779zM262.987 383.896l-179.261-179.242 179.287-181.103v111.254l611.592-0.779 0.315 138.603-611.882 0.779-0.039 110.488zM859.292 280.775v-0.058l15.629 0.058h-15.629z" />
<glyph unicode="rankingactions" glyph-name="rankingactions" d="M538.447 737.279c175.121 0 317.359-143.711 320.577-322.128l0.039-6.205v-303.166l37.499 34.552 41.996-38.779-107.648-99.271-107.608 99.271 41.996 38.779 37.499-34.591v293.86h0.505v9.384c0 146.271-112.339 265.474-253.142 271.756l-5.893 0.193-5.816 0.077c-60.183 0-117.653-20.669-164.38-58.671l-5.545-4.654-21.329-18.341-35.909 43.044 21.095 18.148c57.741 49.635 130.178 76.741 206.067 76.741zM85.443 753.915l107.648 99.311 107.569-99.311-41.996-38.779-37.499 34.591v-293.86h-0.543v-9.384c0-146.271 112.378-265.435 253.219-271.756l5.855-0.193 5.816-0.077c60.183 0 117.653 20.669 164.38 58.671l5.545 4.654 21.329 18.341 35.909-43.044-21.095-18.148c-57.741-49.635-130.178-76.741-206.067-76.741-175.121 0-317.359 143.749-320.577 322.128l-0.039 6.205v303.243l-37.499-34.629-41.996 38.779zM532.319 325.844c28.968 0 51.070 5.157 66.387 15.511s22.957 25.012 22.957 44.051c0 13.030-3.49 24.159-10.547 33.349-7.019 9.19-16.752 15.977-29.161 20.319 9.306 4.77 16.481 11.245 21.561 19.389 5.041 8.144 7.601 17.45 7.601 27.765 0 17.373-7.251 31.178-21.715 41.414s-35.559 15.356-63.286 15.356h-111.059v-217.157h117.264zM518.050 456.758h-42.191v41.88h42.191c20.669 0 31.023-6.941 31.023-20.785 0-14.076-10.354-21.095-31.023-21.095zM527.356 370.206h-51.497v44.051h51.497c21.522 0 32.263-7.369 32.263-22.027 0-14.697-10.741-22.027-32.263-22.027z" />
<glyph unicode="query" glyph-name="dimension-query" d="M543.29 321.927l-91.356 91.025c63.66 71.442 99.746 158.914 126.004 244.499h98.912v65.938h-230.784v65.938h-65.938v-65.938h-263.76v-65.938h395.634c-24.097-69.997-56.108-142.594-107.903-200.623-33.447 37.357-61.141 78.336-83.086 121.489h-71.935c26.256-59.117 62.226-114.961 107.18-165.377l-183.071-182.059 51.076-51.501 179.832 181.328 111.856-112.785 27.334 73.984zM742.788 492.612h-65.938l-164.85-428.607h65.938l46.28 108.8h170.839l46.639-108.8h65.938l-164.85 428.607zM655.87 245.341l53.949 145.067 53.949-145.067h-107.903z" />
<glyph unicode="queries" glyph-name="queries" d="M770.608 840.47c60.903 0 112.18-42.353 114.586-97.73l0.088-4.075v-494.336c0-15.945-12.925-28.87-28.87-28.87-15.007 0-27.339 11.449-28.738 26.090l-0.132 2.78-0.014 364.679h-671.593v-453.822c0-22.31 22.693-42.457 53.233-43.973l3.701-0.091h476.698c15.945 0 28.87-12.925 28.87-28.87 0-15.007-11.449-27.339-26.090-28.738l-2.78-0.132h-476.698c-60.903 0-112.18 42.353-114.586 97.73l-0.088 4.075v583.479c0 55.995 49.828 99.68 110.237 101.729l4.438 0.075h557.736zM563.248 561.394c102.715 0 185.975-83.26 185.975-185.975 0-46.065-16.881-88.409-44.92-121.026v0l8.012-7.725h22.604l142.772-143.057-42.631-42.631-143.057 142.772v22.604l-7.725 8.012c-32.617-28.039-74.961-44.92-121.026-44.92-102.715 0-185.975 83.26-185.975 185.975s83.26 185.975 185.975 185.975zM563.248 504.172c-71.242 0-128.752-57.51-128.752-128.752s57.51-128.752 128.752-128.752c71.242 0 128.752 57.51 128.752 128.752s-57.51 128.752-128.752 128.752zM770.608 782.73h-557.736c-31.146 0-55.037-19.288-56.827-41.399l-0.108-2.666v-48.608h671.593l0.014 48.608c0 22.31-22.693 42.457-53.233 43.973l-3.701 0.091z" />
<glyph unicode="promotions" glyph-name="promotions" d="M902.183 822.58c-2.391 3.943-4.758 7.317-7.335 10.523l0.145-0.187c-9.444 11.876-21.254 21.447-34.758 28.106l-0.597 0.266c-3.027 1.59-6.653 3.149-10.404 4.438l-0.565 0.168-1.163 0.375-1.163 0.355c-2.437 0.771-5.524 1.524-8.675 2.099l-0.499 0.077c-6.272 1.537-13.475 2.416-20.878 2.416 0 0 0 0 0 0v0c-0.035 0-0.068 0-0.107 0-7.494 0-14.757-0.957-21.689-2.753l0.6 0.13c-3.749-0.73-6.893-1.549-9.96-2.544l0.599 0.167-0.336-0.097-0.336-0.11c-14.625-4.841-27.191-12.417-37.678-22.19l0.061 0.058c-1.35-1.182-2.661-2.416-3.934-3.747l-2.733-2.733-2.455-2.978c-52.128-62.551-124.231-106.885-206.425-123.208l-2.29-0.378-2.474-0.465-47.507-4.399c-3.579-0.336-6.893-0.711-9.813-1.047-2.565-0.297-5.019-0.581-6.835-0.73h-205.492c-33.486-0.006-63.157-16.333-81.497-41.45l-0.202-0.288h-1.777c-55.703-0.106-100.832-45.24-100.931-100.937v-125.227c0.098-55.71 45.222-100.844 100.917-100.95h1.79c10.946-14.957 25.543-26.631 42.5-33.832l0.665-0.251 138.851-247.643c19.613-42.472 61.845-71.422 110.835-71.422 27.942 0 53.682 9.416 74.227 25.249l-0.287-0.21 44.845 21.983 9.361 9.361c22.020 22.025 35.634 52.447 35.634 86.053 0 20.564-5.101 39.938-14.104 56.923l0.317-0.662-0.995 1.873-1.085 1.873-56.925 95.22c72.101-20.781 132.96-61.444 178.135-115.637l0.464-0.578c2.582-3.13 5.267-5.943 8.133-8.557l0.065-0.060c4.521-4.297 9.495-8.211 14.811-11.631l0.396-0.236c3.515-2.473 7.521-4.811 11.727-6.809l0.502-0.213 1.143-0.543 1.163-0.485c11.799-5.247 25.568-8.307 40.049-8.314h0.003c11.734 0.017 23.001 2.007 33.485 5.667l-0.714-0.215c4.171 1.439 7.648 2.939 10.996 4.66l-0.472-0.222c14.465 7.078 26.549 16.975 35.949 29.061l0.169 0.228 0.375 0.485 0.355 0.485c2.151 2.862 3.747 5.187 4.457 6.421v0l0.375 0.581 0.355 0.601c9.717 15.037 15.507 33.4 15.543 53.114v542.612c0 0.016 0 0.028 0 0.046 0 19.36-5.559 37.424-15.166 52.68l0.244-0.412zM540.217 95.225l-42.041-20.601c-7.375-7.626-17.696-12.358-29.128-12.358-0.078 0-0.15 0-0.227 0h0.014c-2.961 0.006-5.848 0.33-8.624 0.932l0.271-0.047c-14.189 2.893-25.572 12.695-30.631 25.671l-0.099 0.285-159.613 284.627h-12.655c-11.523 0.014-20.859 9.355-20.859 20.879v0 20.821h-62.617c-11.523 0.014-20.859 9.355-20.859 20.879v0 125.181c0 11.524 9.336 20.871 20.859 20.879h62.617v20.937c0 11.524 9.336 20.871 20.859 20.879h207.424v-250.453h-54.677l137.669-230.324c2.818-5.464 4.476-11.932 4.476-18.777 0-11.478-4.644-21.872-12.151-29.402l0.001 0.001zM837.15 227.726c-0.102-4.026-1.369-7.744-3.474-10.837l0.044 0.068c-0.452-0.711-0.827-1.311-1.331-1.964-2.224-2.957-5.171-5.252-8.589-6.64l-0.132-0.046c-0.11 0-0.207-0.207-0.336-0.245-2.086-0.771-4.499-1.214-7.016-1.214-3.099 0-6.037 0.673-8.674 1.89l0.128-0.056c-0.62 0.297-1.124 0.84-1.757 1.215-1.995 1.099-3.694 2.433-5.154 3.997l-0.014 0.014c-0.207 0.245-0.504 0.336-0.672 0.543-58.932 70.881-138.776 122.539-230.011 145.6l-3.026 0.648v276.558c94.263 23.718 174.107 75.391 232.459 145.568l0.579 0.712c0.168 0.168 0.433 0.207 0.581 0.375 2.423 2.691 5.516 4.744 9.007 5.895l0.147 0.042c0.788 0.245 1.537 0.278 2.319 0.452 1.182 0.397 2.56 0.693 3.983 0.835l0.081 0.005c2.128-0.123 4.122-0.544 5.985-1.227l-0.145 0.045h0.898c0.044 0.006 0.099 0.016 0.149 0.016s0.105-0.004 0.152-0.016l-0.004 0.001c0.129 0 0.226-0.207 0.336-0.245 3.542-1.455 6.486-3.746 8.689-6.632l0.038-0.048c0.473-0.549 0.912-1.165 1.294-1.812l0.036-0.062c2.061-3.025 3.328-6.737 3.424-10.745v-0.024z" />
<glyph unicode="productranking" glyph-name="productranking" d="M438.233 650.871q51.147-22.73 78.438-65.144t27.291-100.798q0-57.591-27.291-100.357t-78.438-65.656q-51.147-22.748-120.114-22.748h-119.726v-153.179h-98.599v530.612h218.323q68.947 0 120.114-22.73zM411.332 406.823q33.329 27.291 33.346 78.067t-33.346 78.050q-33.346 27.309-97.769 27.291h-115.165v-210.7h115.199q64.388 0 97.734 27.291zM938.933 462.761l-131.698 228.008-131.698-228.008h263.397zM675.536 337.753l131.698-228.008 131.698 228.008h-263.397z" />
<glyph unicode="product" glyph-name="dimension-product" d="M391.391 185.699c-38.889 0-70.357-32.182-70.357-71.517s31.467-71.517 70.357-71.517c38.889 0 70.713 32.182 70.713 71.517s-31.819 71.517-70.713 71.517zM738.594 185.699c-38.889 0-70.357-32.182-70.357-71.517s31.467-71.517 70.357-71.517c38.889 0 70.713 32.182 70.713 71.517s-31.819 71.517-70.713 71.517zM425.195 359.302h312.484l138.879 277.766-69.659-0.441-103.941-207.883h-312.484l-138.879 381.923h-104.157v-69.439h69.439l138.879-381.923-34.718-69.439c0-55.846 0-17.361 0-69.439h520.803l34.718 69.439h-486.081l34.718 69.439zM529.361 567.623h69.439v69.439h69.439v69.439h-69.439v69.439h-69.439v-69.439h-69.439v-69.439h69.439v-69.439z" />
<glyph unicode="preview" glyph-name="preview" d="M512 614.402c132.307 0 250.299-72.702 307.899-187.735-57.6-115.028-175.243-187.735-307.899-187.735s-250.299 72.702-307.899 187.735c57.6 115.028 175.591 187.735 307.899 187.735v0zM512 682.669c-174.547 0-323.609-106.156-384-256.002 60.391-149.846 209.455-256.002 384-256.002s323.609 106.156 384 256.002c-60.391 149.846-209.455 256.002-384 256.002zM512 512.001c48.174 0 87.271-38.228 87.271-85.334s-39.099-85.334-87.271-85.334c-48.174 0-87.271 38.228-87.271 85.334s39.099 85.334 87.271 85.334v0zM512 580.267c-86.575 0-157.091-68.948-157.091-153.6s70.518-153.6 157.091-153.6c86.575 0 157.091 68.948 157.091 153.6s-70.518 153.6-157.091 153.6z" />
<glyph unicode="nofullscreen" glyph-name="no-full-screen" d="M127.999 207.238h164.57v-164.57h109.716v274.285h-274.285v-109.716zM292.571 646.096h-164.57v-109.716h274.285v274.285h-109.716v-164.57zM621.716 42.666h109.716v164.57h164.57v109.716h-274.285v-274.285zM731.429 646.096v164.57h-109.716v-274.285h274.285v109.716h-164.57z" />
<glyph unicode="navigationdomain" glyph-name="navigationdomain" d="M511.476 853.333c5.475 0.011 10.957-0.082 16.443-0.282l2.871-0.128c2.195-0.081 4.402-0.194 6.608-0.324 32.711-1.924 65.45-7.646 97.568-17.34l2.519-0.802c0.192-0.059 0.384-0.119 0.577-0.178 18.632-5.748 37.029-12.863 55.080-21.353l2.897-1.377 3.782-1.835c0.921-0.451 1.844-0.909 2.767-1.371 1.434-0.72 2.863-1.445 4.288-2.179l5.707-2.985 5.676-3.081 0.755-0.425-0.377 0.218 3.149-1.764c1.173-0.663 2.345-1.332 3.514-2.007l1.508-0.88 16.1-9.293-0.222-0.415c38.766-24.877 72.237-55.114 99.999-89.168l0.393 0.283 12.069-16.344 3.951-5.448 0.056-0.068 1.612-2.273 2.439-3.503c46.635-67.628 72.056-146.159 75.146-225.894 0.048-1.535 0.1-3.071 0.144-4.606 0.043-1.22 0.072-2.443 0.096-3.665l0.014-1.059c0.128-7.239 0.071-14.491-0.172-21.746l-0.102-2.484c-0.015-0.376-0.031-0.752-0.047-1.129-2.283-54.726-15.179-109.678-39.5-161.778-0.487-1.054-0.976-2.091-1.469-3.126l-1.627-3.364c-0.844-1.751-1.703-3.485-2.575-5.215-0.451-0.871-0.891-1.739-1.336-2.607-3.256-6.379-6.699-12.707-10.317-18.973-77.672-134.53-217.556-210.75-362.332-213.303l-7.251-0.066c-61.139-0.039-122.979 13.079-181.217 40.508-3.291 1.551-6.573 3.148-9.843 4.791-7.429 3.731-14.807 7.708-22.111 11.926-39.089 22.568-73.255 50.389-102.122 82.056-1.833 2.011-3.638 4.031-5.422 6.064-3.977 4.535-7.855 9.153-11.625 13.841l-4.537 5.742c-61.299 78.984-92.741 177.203-89.425 276.368 2.265 67.732 20.74 135.898 56.986 198.679l10.159 17.596 0.417-0.244c24.88 38.775 55.121 72.253 89.181 100.020l-0.299 0.393 16.886 12.478 1.901 1.372 1.491 1.081-2.816-2.048 7.264 5.221c64.714 45.419 139.637 71.248 216.149 76.489 0.214-0.009 0.42 0.005 0.627 0.019 2.181 0.169 4.371 0.299 6.563 0.412l1.4 0.053c1.667 0.097 3.324 0.167 4.983 0.228 1.214 0.033 2.431 0.073 3.648 0.108 3.784 0.116 7.574 0.172 11.365 0.177zM732.24 646.907l-128.473-312.007-312.007-128.473 128.473 312.007 312.007 128.473zM653.798 568.465l-200.886-82.71-82.696-200.87 200.856 82.71 82.726 200.87zM527.085 441.752c8.331-8.331 8.331-21.839 0-30.171s-21.839-8.331-30.171 0c-8.331 8.331-8.331 21.839 0 30.171s21.839 8.331 30.171 0zM533.333 746.667h-42.667l-0.006 65.414c-3.375-0.191-6.745-0.424-10.111-0.702-121.897-10.075-237.013-77.786-302.801-191.73-23.284-40.328-38.463-83.112-46.042-126.465-2.625-15.020-4.339-30.108-5.161-45.186l86.786 0.004v-42.667l-86.746-0.009c3.808-67.625 25.352-133.53 62.699-190.519 4.771-7.281 9.801-14.416 15.084-21.391 21.7-28.643 47.673-54.571 77.648-76.75 11.731-8.679 24.069-16.782 37.004-24.251 3.312-1.912 6.64-3.769 9.984-5.572 11.831-6.379 23.848-12.075 36.014-17.103l6.711-2.699c38.734-15.164 78.869-23.642 118.932-25.828l0.003 65.454h42.667l-0.017-65.416c125.623 7.065 245.327 75.336 312.935 192.439 4.784 8.287 9.226 16.677 13.331 25.154l0.782 1.612 0.628 1.346 0.141 0.271 0.179 0.413 1.536 3.328 0.896 1.963 0.222 0.441 0.591 1.309 0.532 1.215 1.003 2.304 1.737 4.012c0.756 1.792 1.498 3.588 2.225 5.386 15.955 39.544 25.014 80.882 27.361 122.352l0.016 0.538h-65.429v42.667l65.416-0.012c-3.835 68.2-25.709 134.656-63.642 191.98l-1.561 2.336-0.931 1.404-0.634 0.911c-1.608 2.354-3.243 4.693-4.906 7.015-1.084 1.531-2.18 3.036-3.287 4.535l-1.046 1.395c-30.442 40.838-69.517 76.283-116.428 103.368l-7.002 3.94c-1.028 0.566-2.057 1.126-3.087 1.681l-3.858 2.051-2.308 1.211-1.563 0.793-3.273 1.651-3.335 1.651-2.983 1.427-1.127 0.533-2.78 1.304-0.555 0.256-0.085 0.043-0.492 0.216-1.727 0.786-0.384 0.171-3.329 1.491-5.871 2.517c2.469-1.037 4.931-2.101 7.386-3.193l-2.218 0.977-2.991 1.302c-1.233 0.527-2.467 1.048-3.703 1.562l1.525-0.648c-40.879 17.171-83.763 26.897-126.796 29.394l-1.113 0.091 0.021-65.472z" />
<glyph unicode="more" glyph-name="more" d="M512 810.667c211.968 0 384-172.032 384-384s-172.032-384-384-384c-211.968 0-384 172.032-384 384s172.032 384 384 384zM512 733.867c-169.579 0-307.2-137.621-307.2-307.2s137.621-307.2 307.2-307.2c169.579 0 307.2 137.621 307.2 307.2s-137.621 307.2-307.2 307.2zM725.333 396.191h-182.857v-182.857h-60.952v182.857h-182.857v60.952h182.857v182.857h60.952v-182.857h182.857z" />
<glyph unicode="mobile" glyph-name="device-mobile" d="M647.757 853.334h-310.303c-53.528 0-96.97-43.443-96.97-96.97v-659.393c0-53.528 43.443-96.97 96.97-96.97h310.303c53.528 0 96.97 43.443 96.97 96.97v659.393c0 53.528-43.443 96.97-96.97 96.97zM492.607 38.788c-32.193 0-58.182 25.989-58.182 58.182s25.989 58.182 58.182 58.182 58.182-25.989 58.182-58.182-25.989-58.182-58.182-58.182zM667.151 193.939h-349.090v543.031h349.090v-543.031z" />
<glyph unicode="mandatory" glyph-name="mandatory" d="M771.241 335.561l-165.91 91.106 165.91 91.106c13.76 7.554 18.622 24.948 10.773 38.544l-22.729 39.362c-7.847 13.596-25.34 18.081-38.764 9.946l-161.858-98.131 4.053 189.238c0.336 15.696-12.296 28.598-27.993 28.598h-45.45c-15.701 0-28.329-12.902-27.993-28.598l4.053-189.238-161.858 98.131c-13.422 8.141-30.918 3.65-38.764-9.946l-22.729-39.362c-7.847-13.596-2.989-30.988 10.773-38.544l165.908-91.104-165.91-91.106c-13.76-7.554-18.622-24.948-10.773-38.544l22.729-39.362c7.847-13.596 25.342-18.081 38.764-9.946l161.858 98.131-4.053-189.238c-0.336-15.696 12.298-28.598 27.993-28.598h45.452c15.701 0 28.329 12.902 27.993 28.598l-4.053 189.238 161.858-98.131c13.422-8.141 30.918-3.65 38.764 9.946l22.729 39.362c7.847 13.596 2.989 30.988-10.773 38.542z" />
<glyph unicode="main" glyph-name="app-main" d="M170.667 597.334h170.667v170.667h-170.667v-170.667zM426.667 85.334h170.667v170.667h-170.667v-170.667zM170.667 85.334h170.667v170.667h-170.667v-170.667zM170.667 341.334h170.667v170.667h-170.667v-170.667zM426.667 341.334h170.667v170.667h-170.667v-170.667zM682.667 768v-170.667h170.667v170.667h-170.667zM426.667 597.334h170.667v170.667h-170.667v-170.667zM682.667 341.334h170.667v170.667h-170.667v-170.667zM682.667 85.334h170.667v170.667h-170.667v-170.667z" />
<glyph unicode="mailto" glyph-name="mailto" d="M885.333 650.667c0 41.067-33.6 74.667-74.667 74.667h-597.333c-41.067 0-74.667-33.6-74.667-74.667v-448c0-41.067 33.6-74.667 74.667-74.667h597.333c41.067 0 74.667 33.6 74.667 74.667v448zM810.667 650.667l-298.667-186.667-298.667 186.667h597.333zM810.667 202.667h-597.333v373.333l298.667-186.667 298.667 186.667v-373.333z" />
</font>
</defs>
</svg>
